/* XPM */
static char *_ecddc746a294806994d6afbe6d862fbNmQ53A6PvR4L6Ui5[] = {
/* columns rows colors chars-per-pixel */
"128 64 14 1 ",
"  c None",
". c #000001",
"X c #A7573B",
"o c #FF7373",
"O c green",
"+ c #6FC3EF",
"@ c #FF9797",
"# c #FFBFBF",
"$ c #FFC787",
"% c #FFE3B3",
"& c #A6CAF0",
"* c #CEEDDC",
"= c #E3F3FB",
"- c #FFFBF0",
/* pixels */
"                                                                                                                                ",
"                                                                                                                                ",
"                                                                                                                                ",
"                                                                              ....                            ....              ",
"                                              ....                           .====..                         .====..            ",
"                                             .====..                        .=======.                       .=======.           ",
"              ....                          .=======.                      .=========.                     .=========.          ",
"             .====..                       .=========.                     .==&&&&===.                     .==&&&&===.          ",
"            .=======.                      .==&&&&===.                     .=&&+++&&=.                     .=&&+++&&=.          ",
"           .=========.                     .=&&+++&&=.                   ....&+++++&&...                 ....&+++++&&...        ",
"           .==&&&&===.                   ....&+++++&&...                .==&.......++&==.               .==&.......++&==.       ",
"           .=&&+++&&=.                  .==&.......++&==.              .==&&..%%%%%.++&==.             .==&&..%%%%%.++&==.      ",
"         ....&+++++&&...               .==&&..%%%%%.++&==.             .==&+.$%.%%.%.+&===.            .==&+.$%.%%.%.+&===.     ",
"        .==&.......++&==.              .==&+.$%.%%.%.+&===.            .==&+.$%.%%.%%.+&==.            .==&+.$%.%%.%%.+&==.     ",
"       .==&&..%%%%%.++&==.             .==&+.$%.%%.%%.+&==.            .==&.oXo%%%%oo.+&==.            .==&.oXo%%%%oo.+&==.     ",
"       .==&+.$%.%%.%.+&===.            .==&.oXo%%%%oo.+&==.            .===.oXo%%%%oo.+&==.            .===.oXo%%%%oo.+&==.     ",
"       .==&+.$%.%%.%%.+&==.            .===.oXo%%%%oo.+&==.            .%==.o$$$%%%%%.&&==.            .%==.o$$$%%%%%.&&==.     ",
"       .==&.oXo%%%%oo.+&==.            .%==.o$$$%%%%%.&&==.            ..%=.oo$$$$$$$.&==.             ..%=.oo$$$$$$$.&==.      ",
"       .===.oXo%%%%oo.+&==.            ..%=.oo$$$$$$$.&==.              .....oo$..$$.....               .....oo$..$$.....       ",
"       .%==.o$$$%%%%%.&&==.             .....oo$..$$.....                .O.%.ooooo.&=.                  .O.%.ooooo.&=.         ",
"       ..%=.oo$$$$$$$.&==.               .O.%.ooooo.&=.                 .OO.%=.....&==.                 .OO.%=.....&==.         ",
"        .....oo$..$$.....               .OO.%=.....&==.                .OOO.%=========.                .OOO.%===..====.         ",
"         .O.%.ooooo.&=.                .OOO.%=========.                ....O.%==..===.                 ....O.%=.@@.==.          ",
"        .OO.%=.....&==.                ....O.%=======.                   .OOO...@@.=.                    .OOO...#@.=.           ",
"       .OOO.%=========.                  .OOO..%====.                     ......#@..                      ......##@.            ",
"       ....O.%=======.                    ..........                       ..--.##@.                      ...---.#@.            ",
"         .OOO..%====.                      ..@@@...                        .#....#@.                      .#-....-#.            ",
"          ..........                       ..@@@@#.                        .@#.*.-#.                      .@#.   ...            ",
"           .........                       .-...#-.                        .@##. ...                      .@##.                 ",
"          .@###--.--.                      .#@@@...                         .@#.                           .@#.                 ",
"          .@@@@@#.@#.                       ..@@@.                          .@@.                           .@@.                 ",
"          ...........                         ....                           ..                             ..                  ",
"                                                                                                                                ",
"                                                                                                                                ",
"                                                                                                                                ",
"                                                                              ....                            ....              ",
"                                              ....                          ..====.                         ..====.             ",
"                                            ..====.                        .=======.                       .=======.            ",
"              ....                         .=======.                      .=========.                     .=========.           ",
"            ..====.                       .=========.                     .===&&&&==.                     .===&&&&==.           ",
"           .=======.                      .===&&&&==.                     .=&&+++&&=.                     .=&&+++&&=.           ",
"          .=========.                     .=&&+++&&=.                   ...&&+++++&....                 ...&&+++++&....         ",
"          .===&&&&==.                   ...&&+++++&....                .==&++.......&==.               .==&++.......&==.        ",
"          .=&&+++&&=.                  .==&++.......&==.              .==&++.%%%%%..&&==.             .==&++.%%%%%..&&==.       ",
"        ...&&+++++&....               .==&++.%%%%%..&&==.            .===&+.%.%%.%$.+&==.            .===&+.%.%%.%$.+&==.       ",
"       .==&++.......&==.             .===&+.%.%%.%$.+&==.            .==&+.%%.%%.%$.+&==.            .==&+.%%.%%.%$.+&==.       ",
"      .==&++.%%%%%..&&==.            .==&+.%%.%%.%$.+&==.            .==&+.oo%%%%oXo.&==.            .==&+.oo%%%%oXo.&==.       ",
"     .===&+.%.%%.%$.+&==.            .==&+.oo%%%%oXo.&==.            .==&+.oo%%%%oXo.===.            .==&+.oo%%%%oXo.===.       ",
"     .==&+.%%.%%.%$.+&==.            .==&+.oo%%%%oXo.===.            .==&&.%%%%%$$$o.==%.            .==&&.%%%%%$$$o.==%.       ",
"     .==&+.oo%%%%oXo.&==.            .==&&.%%%%%$$$o.==%.             .==&.$$$$$$$oo.=%..             .==&.$$$$$$$oo.=%..       ",
"     .==&+.oo%%%%oXo.===.             .==&.$$$$$$$oo.=%..              .....$$..$oo.....               .....$$..$oo.....        ",
"     .==&&.%%%%%$$$o.==%.              .....$$..$oo.....                 .=&.ooooo.%.O.                  .=&.ooooo.%.O.         ",
"      .==&.$$$$$$$oo.=%..                .=&.ooooo.%.O.                  .==&.....=%.OO.                 .==&.....=%.OO.        ",
"       .....$$..$oo.....                 .==&.....=%.OO.                 .=========%.OOO.                .====..===%.OOO.       ",
"         .=&.ooooo.%.O.                  .=========%.OOO.                 .===..==%.O....                 .==.@@.=%.O....       ",
"         .==&.....=%.OO.                  .=======%.O....                  .=.@@...OOO.                    .=.@#...OOO.         ",
"         .=========%.OOO.                  .====%..OOO.                     ..@#......                      .@##......          ",
"          .=======%.O....                   ..........                      .@##.--..                       .@#.---...          ",
"           .====%..OOO.                      ...@@@..                       .@#....#.                       .#-....-#.          ",
"            ..........                       .#@@@@..                       .#-.*.#@.                       ...   .#@.          ",
"            .........                        .-#...-.                       ... .##@.                            .##@.          ",
"           .--.--###@.                       ...@@@#.                           .#@.                             .#@.           ",
"           .#@.#@@@@@.                        .@@@..                            .@@.                             .@@.           ",
"           ...........                        ....                               ..                               ..            "
};
