/* XPM */
static char *_4621e973d174902b04042c2922e44a4kujHPZF8vQMVmTRM[] = {
/* columns rows colors chars-per-pixel */
"64 64 3 1 ",
"  c None",
". c black",
"X c #C2BA0A",
/* pixels */
"                                                                ",
"                                                                ",
"                                                                ",
"                                                                ",
"                                                                ",
"                                                                ",
"                                                                ",
"                                                                ",
"                                                                ",
"                                                                ",
"                                                                ",
"                                                                ",
"                                                                ",
"                                                                ",
"                                                                ",
"                             ......                             ",
"                             .XXXX.                             ",
"                             .XXXX.                             ",
"                             .XXXX.                             ",
"                             .XXXX.                             ",
"                             .XXXX.                             ",
"                             .XXXX.                             ",
"                             .XXXX.                             ",
"                             .XXXX.                             ",
"                             .XXXX.                             ",
"                             .XXXX.                             ",
"                             .XXXX.                             ",
"                             .XXXX.                             ",
"                             .XXXX.                             ",
"                             .XXXX.                             ",
"                             .XXXX.                             ",
"                             .XXXX.                             ",
"                             .XXXX.                             ",
"                             .XXXX.                             ",
"                             .XXXX.                             ",
"                             .XXXX.                             ",
"                             .XXXX.                             ",
"                             .XXXX.                             ",
"                             .XXXX.                             ",
"                             .XXXX.                             ",
"                             .XXXX.                             ",
"                             .XXXX.                             ",
"                             .XXXX.                             ",
"                             .XXXX.                             ",
"                             .XXXX.                             ",
"                             .XXXX.                             ",
"                             .XXXX.                             ",
"                             .XXXX.                             ",
"                             ......                             ",
"                                                                ",
"                                                                ",
"                                                                ",
"                                                                ",
"                                                                ",
"                                                                ",
"                                                                ",
"                                                                ",
"                                                                ",
"                                                                ",
"                                                                ",
"                                                                ",
"                                                                ",
"                                                                ",
"                                                                "
};
