/* XPM */
static char *_d8d6d8efb494e8bb485a0a06f2bc2220e71r46QJLb5V1r3[] = {
/* columns rows colors chars-per-pixel */
"64 64 6 1 ",
"  c None",
". c black",
"X c #AC3232",
"o c #C2BA0A",
"O c #CBDBFC",
"+ c white",
/* pixels */
"                                                                ",
"                                                                ",
"                                                                ",
"                                                                ",
"                                                                ",
"                                                                ",
"                                                                ",
"                                                                ",
"                                                                ",
"                                                                ",
"                                                                ",
"                                                                ",
"                                                                ",
"                                                                ",
"                                                                ",
"                            ........                            ",
"                          ..oooooooo..                          ",
"                        ..oooooooooooo..                        ",
"                      ..oooooooooooooooo..                      ",
"                     .oooooooooooooooooooo.                     ",
"                    .ooooooooOOOOOOoooooooo.                    ",
"                   .oooooooOOOOOOOOOOooooooo.                   ",
"                  .ooooooOOOOOOOOOOOOOOoooooo.                  ",
"                  .oooooOOOOOOOOOOOOOOOOooooo.                  ",
"                 .oooooOOOOOOOOOOOOOOOOOOooooo.                 ",
"                 .ooooOOOOOOOOOOOOOOOOOOOOoooo.                 ",
"                .oooooOOOOO..OOOOOO..OOOOOooooo.                ",
"                .ooooOOOOO..+.OOOO..+.OOOOOoooo.                ",
"               .oooooOOOOO....OOOO....OOOOOooooo.               ",
"               .ooooOOOOOOO..OOOOOO..OOOOOOOoooo.               ",
"               .ooooOOOOOOOOOOOOOOOOOOOOOOOOoooo.               ",
"               .ooooOOOOOOOOOO....OOOOOOOOOOoooo.               ",
"               .ooooOOOOOOOOOOO..OOOOOOOOOOOoooo.               ",
"               .ooooOOOOOOOOOOOOOOOOOOOOOOOOoooo.               ",
"               .ooooOOOOOOOOOOOOOOOOOOOOOOOOoooo.               ",
"               .oooooOOOOOO..OO..OO..OOOOOOooooo.               ",
"                .ooooOOOOO.OOOO..OOOO.OOOOOoooo.                ",
"                .oooooOOOO.OOOO..OOOO.OOOOooooo.                ",
"                 .ooooOOOO.OOOO..OOOO.OOOOoooo.                 ",
"                 .oooooOOOO....XX....OOOOooooo.                 ",
"                  .oooooOOOOOO.XX.OOOOOOooooo.                  ",
"                  .ooooooOOOOOO..OOOOOOoooooo.                  ",
"                   .oooooooOOOOOOOOOOooooooo.                   ",
"                    .ooooooooOOOOOOoooooooo.                    ",
"                     .oooooooooooooooooooo.                     ",
"                      ..oooooooooooooooo..                      ",
"                        ..oooooooooooo..                        ",
"                          ..oooooooo..                          ",
"                            ........                            ",
"                                                                ",
"                                                                ",
"                                                                ",
"                                                                ",
"                                                                ",
"                                                                ",
"                                                                ",
"                                                                ",
"                                                                ",
"                                                                ",
"                                                                ",
"                                                                ",
"                                                                ",
"                                                                ",
"                                                                "
};
