/* XPM */
static char *_2ece2b8ba5d47a48cb464c2b588a466yrvQuiiHACcEtLPq[] = {
/* columns rows colors chars-per-pixel */
"64 64 6 1 ",
"  c None",
". c black",
"X c #AC3232",
"o c #C2BA0A",
"O c #CBDBFC",
"+ c white",
/* pixels */
"                                                                ",
"                                                                ",
"                                                                ",
"                                                                ",
"                                                                ",
"                                                                ",
"                                                                ",
"                                                                ",
"                                                                ",
"                                                                ",
"                                                                ",
"                                                                ",
"                                                                ",
"                                                                ",
"                                                                ",
"                             ..........                         ",
"                            .oooooo.ooo.                        ",
"                           .oooooooo.ooo.                       ",
"                          .oooooooooo.ooo.                      ",
"                         .oooooOOooooo.ooo.                     ",
"                        .ooooOOOOOOoooo.ooo.                    ",
"                        .oooOOOOOOOOooo.ooo.                    ",
"                       .ooooOOOOOOOOoooo.ooo.                   ",
"                       .oooOOOOOOOOOOooo.ooo.                   ",
"                      .ooooOOOOOOOOOOoooo.ooo.                  ",
"                      .oooOOO.OOOOOOOOooo.ooo.                  ",
"                      .oooOO.+.OOOO.OOooo.ooo.                  ",
"                     .ooooOO...OOO.OOOoooo.ooo.                 ",
"                     .oooOOOO.OOO...OOOooo.ooo.                 ",
"                     .oooOOOOOOOOOOOOOOooo.ooo.                 ",
"                     .oooOOOOOO..OOOOOOooo.ooo.                 ",
"                     .oooOOOOOO..OOOOOOooo.ooo.                 ",
"                     .oooOOOOOOOOOOOOOOooo.ooo.                 ",
"                     .oooOOOOOOOOOOOOOOooo.ooo.                 ",
"                     .oooOOO.OO.OO.OOOOooo.ooo.                 ",
"                     .oooOO.OOO.OOO.OOOooo.ooo.                 ",
"                     .ooooO.OOO.OOO.OOoooo.ooo.                 ",
"                      .oooO.OOO.OOO.OOooo.ooo.                  ",
"                      .oooOO...X...OOOooo.ooo.                  ",
"                      .ooooOOO.X.OOOOoooo.ooo.                  ",
"                       .oooOOOO.OOOOOooo.ooo.                   ",
"                       .ooooOOOOOOOOoooo.ooo.                   ",
"                        .oooOOOOOOOOooo.ooo.                    ",
"                        .ooooOOOOOOoooo.ooo.                    ",
"                         .oooooOOooooo.ooo.                     ",
"                          .oooooooooo.ooo.                      ",
"                           .oooooooo.ooo.                       ",
"                            .oooooo.ooo.                        ",
"                             ..........                         ",
"                                                                ",
"                                                                ",
"                                                                ",
"                                                                ",
"                                                                ",
"                                                                ",
"                                                                ",
"                                                                ",
"                                                                ",
"                                                                ",
"                                                                ",
"                                                                ",
"                                                                ",
"                                                                ",
"                                                                "
};
