/* XPM */
static char *ca875611f95a454fe5e17f140070caf3SVE3QN2HKDKIDFGK[] = {
/* columns rows colors chars-per-pixel */
"64 64 6 1 ",
"  c None",
". c black",
"X c #AC3232",
"o c #C2BA0A",
"O c #CBDBFC",
"+ c white",
/* pixels */
"                                                                ",
"                                                                ",
"                                                                ",
"                                                                ",
"                                                                ",
"                                                                ",
"                                                                ",
"                                                                ",
"                                                                ",
"                                                                ",
"                                                                ",
"                                                                ",
"                                                                ",
"                                                                ",
"                                                                ",
"                         ..........                             ",
"                        .ooo.oooooo.                            ",
"                       .ooo.oooooooo.                           ",
"                      .ooo.oooooooooo.                          ",
"                     .ooo.oooooOOooooo.                         ",
"                    .ooo.ooooOOOOOOoooo.                        ",
"                    .ooo.oooOOOOOOOOooo.                        ",
"                   .ooo.ooooOOOOOOOOoooo.                       ",
"                   .ooo.oooOOOOOOOOOOooo.                       ",
"                  .ooo.ooooOOOOOOOOOOoooo.                      ",
"                  .ooo.oooOOO.OOOO.OOOooo.                      ",
"                  .ooo.oooOO.+.OO.+.OOooo.                      ",
"                 .ooo.ooooOO...OO...OOoooo.                     ",
"                 .ooo.oooOOOO.OOOO.OOOOooo.                     ",
"                 .ooo.oooOOOOOOOOOOOOOOooo.                     ",
"                 .ooo.oooOOOOOO..OOOOOOooo.                     ",
"                 .ooo.oooOOOOOO..OOOOOOooo.                     ",
"                 .ooo.oooOOOOOOOOOOOOOOooo.                     ",
"                 .ooo.oooOOOOOOOOOOOOOOooo.                     ",
"                 .ooo.oooOOOO.OO.OO.OOOooo.                     ",
"                 .ooo.oooOOO.OOO.OOO.OOooo.                     ",
"                 .ooo.ooooOO.OOO.OOO.Ooooo.                     ",
"                  .ooo.oooOO.OOO.OOO.Oooo.                      ",
"                  .ooo.oooOOO...X...OOooo.                      ",
"                  .ooo.ooooOOOO.X.OOOoooo.                      ",
"                   .ooo.oooOOOOO.OOOOooo.                       ",
"                   .ooo.ooooOOOOOOOOoooo.                       ",
"                    .ooo.oooOOOOOOOOooo.                        ",
"                    .ooo.ooooOOOOOOoooo.                        ",
"                     .ooo.oooooOOooooo.                         ",
"                      .ooo.oooooooooo.                          ",
"                       .ooo.oooooooo.                           ",
"                        .ooo.oooooo.                            ",
"                         ..........                             ",
"                                                                ",
"                                                                ",
"                                                                ",
"                                                                ",
"                                                                ",
"                                                                ",
"                                                                ",
"                                                                ",
"                                                                ",
"                                                                ",
"                                                                ",
"                                                                ",
"                                                                ",
"                                                                ",
"                                                                "
};
