/* XPM */
static char *PH_down1676127052[] = {
/* columns rows colors chars-per-pixel */
"64 64 75 1 ",
"  c None",
". c black",
"X c #410000",
"o c #DF7126",
"O c #DD7343",
"+ c #DC7457",
"@ c #DB7561",
"# c #DA777E",
"$ c #D97788",
"% c #D8799C",
"& c #D77BBA",
"* c #DFB0B0",
"= c #E0B4B4",
"- c #E2B9B9",
"; c #E3B9B9",
": c #E3BABA",
"> c #E4BDBD",
", c #E4BEBE",
"< c #E6C1C1",
"1 c #E6C3C3",
"2 c #E7C4C4",
"3 c #E7C5C5",
"4 c #E8C7C7",
"5 c #E9C8C8",
"6 c #EACCCC",
"7 c #EACDCD",
"8 c #EBCFCF",
"9 c #ECD0D0",
"0 c #ECD1D1",
"q c #EDD2D2",
"w c #EDD3D3",
"e c #EDD4D4",
"r c #EED6D6",
"t c #EED7D7",
"y c #EFD7D7",
"u c #F0DADA",
"i c #F0DBDB",
"p c #F1DCDC",
"a c #F1DEDE",
"s c #F2DFDF",
"d c #F2E1E1",
"f c #F3E2E2",
"g c #F3E3E3",
"h c #F4E4E4",
"j c #F4E5E5",
"k c #F5E6E6",
"l c #F5E7E7",
"z c #F6E8E8",
"x c #F6E9E9",
"c c #F6EAEA",
"v c #F6EBEB",
"b c #F7EBEB",
"n c #F7ECEC",
"m c #F7EDED",
"M c #F8EDED",
"N c #F8EEEE",
"B c #F8EFEF",
"V c #F8F0F0",
"C c #F9F0F0",
"Z c #F9F1F1",
"A c #F9F2F2",
"S c #FAF2F2",
"D c #FAF3F3",
"F c #FAF4F4",
"G c #FAF5F5",
"H c #FBF5F5",
"J c #FBF6F6",
"K c #FBF7F7",
"L c #FCF8F8",
"P c #FCF9F9",
"I c #FDFAFA",
"U c #FDFBFB",
"Y c #FEFCFC",
"T c #FEFDFD",
"R c white",
/* pixels */
"                                                                ",
"                                                                ",
"                                                                ",
"                                                                ",
"                                                                ",
"                                                                ",
"                                                                ",
"                                                                ",
"                                                                ",
"                                                                ",
"                                                                ",
"                                                                ",
"                                                                ",
"                                                                ",
"                .........               ........                ",
"             ...RRRRRRRRR..          ...RRRRRRRR...             ",
"           ..RRRRRRRRRLLHAM.        .jcnAKLRRRRRRRR.            ",
"          .RRRRRRRRHAAMnjjfp.      .eepfjcMAKLRRRRRR..          ",
"         .RRRRLHAAccjfppee97.      .3579eipjjbAKKRRRRR.         ",
"        .RLHAMnjj....e9753<.        .;><479.....cAALRRR.        ",
"       .AMccjpp........>;..          .==;........fjcMKLR.       ",
"        ..iee9...........             ............eipg..        ",
"          ..3<........                   .........5...          ",
"            .......                         .......             ",
"                                                                ",
"                                                                ",
"                                                                ",
"                                                                ",
"                                                                ",
"                                                                ",
"                                                                ",
"                                                                ",
"                                                                ",
"                                                                ",
"                      .....      ......                         ",
"                  ....&&&&&......&&&&&&....                     ",
"               ...$$$$$$$$$$$..$$$$$$$$$$$$..                   ",
"             ..++++++++++++++++++++++++++++++..                 ",
"           ..ooooooooooooooo....ooooooooooooooo..               ",
"          .oooooooooo.......R.RR.......oooooooooo.              ",
"         .oooooo.....RRR.RRRR.RRRR.RRRR....ooooooo.             ",
"         ................RRRR......................             ",
"         .&&&&&&..XXXXXX......XXXXXXXXXXXX.&&&&&&&.             ",
"          .&&&&&&&.....XXXXXXXXXXXXXXX....&&&&&&&.              ",
"           .&&&&&&&&&&&...............&&&&&&&&&&.               ",
"            .%%%%%%%%%%%%%..RRRR..%%%%%%%%%%%%%.                ",
"             .##############....##############.                 ",
"              ..@@@@@@@@@@@@@@@@@@@@@@@@@@@@..                  ",
"                ..OOOOOOOOOOOOOOOOOOOOOOOO..                    ",
"                  ....oooooooooooooooo....                      ",
"                      .....oooooo.....                          ",
"                           ......                               ",
"                                                                ",
"                                                                ",
"                                                                ",
"                                                                ",
"                                                                ",
"                                                                ",
"                                                                ",
"                                                                ",
"                                                                ",
"                                                                ",
"                                                                ",
"                                                                "
};
