/* XPM */
static char *PH_idle1676127052[] = {
/* columns rows colors chars-per-pixel */
"64 64 63 1 ",
"  c None",
". c black",
"X c #410000",
"o c #DF7126",
"O c #DD7343",
"+ c #DC7457",
"@ c #DB7561",
"# c #DA777E",
"$ c #D97788",
"% c #D8799C",
"& c #D77BBA",
"* c #DEAFAF",
"= c #DFB0B0",
"- c #E0B3B3",
"; c #E0B4B4",
": c #E2B9B9",
"> c #E3B9B9",
", c #E3BABA",
"< c #E3BBBB",
"1 c #E4BDBD",
"2 c #E4BEBE",
"3 c #E6C1C1",
"4 c #E6C3C3",
"5 c #E7C4C4",
"6 c #E7C5C5",
"7 c #E8C7C7",
"8 c #E9C8C8",
"9 c #EACCCC",
"0 c #EACDCD",
"q c #ECD0D0",
"w c #ECD1D1",
"e c #EDD2D2",
"r c #EDD4D4",
"t c #EED6D6",
"y c #EED7D7",
"u c #EFD7D7",
"i c #F0DADA",
"p c #F0DBDB",
"a c #F1DCDC",
"s c #F1DEDE",
"d c #F2DFDF",
"f c #F2E1E1",
"g c #F3E3E3",
"h c #F4E4E4",
"j c #F4E5E5",
"k c #F5E6E6",
"l c #F6E8E8",
"z c #F6E9E9",
"x c #F6EAEA",
"c c #F8EDED",
"v c #F8EEEE",
"b c #F9F1F1",
"n c #F9F2F2",
"m c #FAF2F2",
"M c #FAF3F3",
"N c #FBF5F5",
"B c #FBF7F7",
"V c #FCF8F8",
"C c #FCF9F9",
"Z c #FDFBFB",
"A c #FEFCFC",
"S c #FEFDFD",
"D c white",
/* pixels */
"                                                                ",
"                                                                ",
"                                                                ",
"                                                                ",
"                                                                ",
"                                                                ",
"                                                                ",
"                                                                ",
"                                                                ",
"                                                                ",
"                                                                ",
"                                                                ",
"                                                                ",
"                                                                ",
"                .........               ........                ",
"             .......DDDDD..          ...DDD........             ",
"           ..D.......DDBNnc.        .jxcnVV.......D.            ",
"          .DDD........cxjjfa.      .rrpfjx........DD..          ",
"         .DDDD........aarrq0.      .770qrp........DDDD.         ",
"        .DVNnc.........0863.        .,2370........nVDDD.        ",
"       .ncxxjaa........2<..          .-;<2.......fjxcBVD.       ",
"        ..prrq0..........             ...*-......qrpag..        ",
"          ..632<......                   ........78...          ",
"            .......                         .......             ",
"                                                                ",
"                                                                ",
"                                                                ",
"                                                                ",
"                                                                ",
"                                                                ",
"                                                                ",
"                                                                ",
"                                                                ",
"                                                                ",
"                        .....      ......                       ",
"                    ....&&&&&......&&&&&&....                   ",
"                 ...$$$$$$$$$$$..$$$$$$$$$$$$..                 ",
"               ..++++++++++++++++++++++++++++++..               ",
"             ..ooooooooooooooo....ooooooooooooooo..             ",
"            .oooooooooo.......D.DD.......oooooooooo.            ",
"           .oooooo.....DDD.DDDD.DDDD.DDDD....ooooooo.           ",
"           ................DDDD......................           ",
"           .&&&&&&..XXXXXX......XXXXXXXXXXXX.&&&&&&&.           ",
"            .&&&&&&&.....XXXXXXXXXXXXXXX....&&&&&&&.            ",
"             .&&&&&&&&&&&...............&&&&&&&&&&.             ",
"              .%%%%%%%%%%%%%..DDDD..%%%%%%%%%%%%%.              ",
"               .##############....##############.               ",
"                ..@@@@@@@@@@@@@@@@@@@@@@@@@@@@..                ",
"                  ..OOOOOOOOOOOOOOOOOOOOOOOO..                  ",
"                    ....oooooooooooooooo....                    ",
"                        .....oooooo.....                        ",
"                             ......                             ",
"                                                                ",
"                                                                ",
"                                                                ",
"                                                                ",
"                                                                ",
"                                                                ",
"                                                                ",
"                                                                ",
"                                                                ",
"                                                                ",
"                                                                ",
"                                                                "
};
