/* XPM */
static char *PH_left1676127052[] = {
/* columns rows colors chars-per-pixel */
"64 64 90 1 ",
"  c None",
". c black",
"X c #410000",
"o c #DF7126",
"O c #DD7343",
"+ c #DC7457",
"@ c #DB7561",
"# c #DA777E",
"$ c #D97788",
"% c #D8799C",
"& c #D77BBA",
"* c #DEAEAE",
"= c #DFB0B0",
"- c #E0B2B2",
"; c #E0B4B4",
": c #E1B5B5",
"> c #E1B6B6",
", c #E2B7B7",
"< c #E2B8B8",
"1 c #E3B9B9",
"2 c #E3BABA",
"3 c #E3BBBB",
"4 c #E3BCBC",
"5 c #E4BCBC",
"6 c #E4BDBD",
"7 c #E5BFBF",
"8 c #E5C0C0",
"9 c #E6C1C1",
"0 c #E6C3C3",
"q c #E7C4C4",
"w c #E7C5C5",
"e c #E8C6C6",
"r c #E8C7C7",
"t c #E9C8C8",
"y c #E9C9C9",
"u c #E9CACA",
"i c #EACBCB",
"p c #EACCCC",
"a c #EACDCD",
"s c #EBCECE",
"d c #EBCFCF",
"f c #ECD0D0",
"g c #ECD2D2",
"h c #EDD2D2",
"j c #EDD3D3",
"k c #EDD4D4",
"l c #EED5D5",
"z c #EED6D6",
"x c #EED7D7",
"c c #EFD7D7",
"v c #EFD8D8",
"b c #EFD9D9",
"n c #F0DADA",
"m c #F0DBDB",
"M c #F1DCDC",
"N c #F1DDDD",
"B c #F1DEDE",
"V c #F2DFDF",
"C c #F2E1E1",
"Z c #F3E2E2",
"A c #F3E3E3",
"S c #F4E4E4",
"D c #F4E5E5",
"F c #F5E6E6",
"G c #F5E7E7",
"H c #F6E9E9",
"J c #F6EAEA",
"K c #F6EBEB",
"L c #F7ECEC",
"P c #F8EDED",
"I c #F8EEEE",
"U c #F8EFEF",
"Y c #F8F0F0",
"T c #F9F0F0",
"R c #F9F1F1",
"E c #F9F2F2",
"W c #FAF2F2",
"Q c #FAF3F3",
"! c #FAF4F4",
"~ c #FAF5F5",
"^ c #FBF5F5",
"/ c #FBF6F6",
"( c #FBF7F7",
") c #FCF8F8",
"_ c #FCF9F9",
"` c #FDFAFA",
"' c #FDFBFB",
"] c #FEFCFC",
"[ c #FEFDFD",
"{ c white",
/* pixels */
"                                                                ",
"                                                                ",
"                                                                ",
"                                                                ",
"                                                                ",
"                                                                ",
"                                                                ",
"                                                                ",
"                                                                ",
"                                                                ",
"                                                                ",
"                                                                ",
"                                                                ",
"                                                                ",
"                .........               ........                ",
"             ...{{{{{{{{{..          .....{{{{{{...             ",
"           ....{{{{{{{{((RP.        .D.....{{{{{{{{.            ",
"          ......{{_(!RPJDZZm.      .gc......!_{{{{{{..          ",
"         .{.....RRJJDZBmcggp.      .we......JLR!!{{{{{.         ",
"        .{_.....DZBmccppie8.        .3......vBZDLRR_{{{.        ",
"       .RPJ.....cgpiww77<..          .......ipgcBZDJPR__.       ",
"        ..mc....ww84<:...             .....<78wipgcmBD..        ",
"          ......::=...                   ...*-<<7ee...          ",
"            .......                         .......             ",
"                                                                ",
"                                                                ",
"                                                                ",
"                                                                ",
"                                                                ",
"                                                                ",
"                                                                ",
"                                                                ",
"                                                                ",
"                                                                ",
"                      .....      ......                         ",
"                  ....&&&&&......&&&&&&....                     ",
"               ...$$$$$$$$$$$..$$$$$$$$$$$$..                   ",
"             ..++++++++++++++++++++++++++++++..                 ",
"           ..ooooooooooooooo....ooooooooooooooo..               ",
"          .oooooooooo.......{.{{.......oooooooooo.              ",
"         .oooooo.....{{{.{{{{.{{{{.{{{{....ooooooo.             ",
"         ................{{{{......................             ",
"         .&&&&&&..XXXXXX......XXXXXXXXXXXX.&&&&&&&.             ",
"          .&&&&&&&.....XXXXXXXXXXXXXXX....&&&&&&&.              ",
"           .&&&&&&&&&&&...............&&&&&&&&&&.               ",
"            .%%%%%%%%%%%%%..{{{{..%%%%%%%%%%%%%.                ",
"             .##############....##############.                 ",
"              ..@@@@@@@@@@@@@@@@@@@@@@@@@@@@..                  ",
"                ..OOOOOOOOOOOOOOOOOOOOOOOO..                    ",
"                  ....oooooooooooooooo....                      ",
"                      .....oooooo.....                          ",
"                           ......                               ",
"                                                                ",
"                                                                ",
"                                                                ",
"                                                                ",
"                                                                ",
"                                                                ",
"                                                                ",
"                                                                ",
"                                                                ",
"                                                                ",
"                                                                ",
"                                                                "
};
