/* XPM */
static char *PH_right1676127053[] = {
/* columns rows colors chars-per-pixel */
"64 64 96 2 ",
"   c None",
".  c black",
"X  c #410000",
"o  c #DF7126",
"O  c #DD7343",
"+  c #DC7457",
"@  c #DB7561",
"#  c #DA777E",
"$  c #D97788",
"%  c #D8799C",
"&  c #D77BBA",
"*  c #DEAEAE",
"=  c #DEAFAF",
"-  c #DFB0B0",
";  c #E0B2B2",
":  c #E0B3B3",
">  c #E0B4B4",
",  c #E1B5B5",
"<  c #E1B6B6",
"1  c #E2B7B7",
"2  c #E2B8B8",
"3  c #E2B9B9",
"4  c #E3BABA",
"5  c #E3BBBB",
"6  c #E3BCBC",
"7  c #E4BCBC",
"8  c #E4BDBD",
"9  c #E4BEBE",
"0  c #E5BFBF",
"q  c #E5C0C0",
"w  c #E6C1C1",
"e  c #E6C2C2",
"r  c #E6C3C3",
"t  c #E7C4C4",
"y  c #E7C5C5",
"u  c #E8C6C6",
"i  c #E8C7C7",
"p  c #E9C8C8",
"a  c #E9C9C9",
"s  c #E9CACA",
"d  c #EACBCB",
"f  c #EACCCC",
"g  c #EACDCD",
"h  c #EBCECE",
"j  c #EBCFCF",
"k  c #ECD0D0",
"l  c #ECD1D1",
"z  c #ECD2D2",
"x  c #EDD2D2",
"c  c #EDD3D3",
"v  c #EDD4D4",
"b  c #EED5D5",
"n  c #EED6D6",
"m  c #EED7D7",
"M  c #EFD7D7",
"N  c #EFD8D8",
"B  c #EFD9D9",
"V  c #F0DADA",
"C  c #F0DBDB",
"Z  c #F1DCDC",
"A  c #F1DDDD",
"S  c #F1DEDE",
"D  c #F2DFDF",
"F  c #F2E1E1",
"G  c #F3E2E2",
"H  c #F3E3E3",
"J  c #F4E4E4",
"K  c #F4E5E5",
"L  c #F5E6E6",
"P  c #F5E7E7",
"I  c #F6E8E8",
"U  c #F6E9E9",
"Y  c #F6EAEA",
"T  c #F7EBEB",
"R  c #F7ECEC",
"E  c #F7EDED",
"W  c #F8EDED",
"Q  c #F8EEEE",
"!  c #F8F0F0",
"~  c #F9F0F0",
"^  c #F9F1F1",
"/  c #F9F2F2",
"(  c #FAF2F2",
")  c #FAF3F3",
"_  c #FAF4F4",
"`  c #FAF5F5",
"'  c #FBF5F5",
"]  c #FBF6F6",
"[  c #FBF7F7",
"{  c #FCF8F8",
"}  c #FCF9F9",
"|  c #FDFAFA",
" . c #FDFBFB",
".. c #FEFCFC",
"X. c #FEFDFD",
"o. c white",
/* pixels */
"                                                                                                                                ",
"                                                                                                                                ",
"                                                                                                                                ",
"                                                                                                                                ",
"                                                                                                                                ",
"                                                                                                                                ",
"                                                                                                                                ",
"                                                                                                                                ",
"                                                                                                                                ",
"                                                                                                                                ",
"                                                                                                                                ",
"                                                                                                                                ",
"                                                                                                                                ",
"                                                                                                                                ",
"                                . . . . . . . . .                               . . . . . . . .                                 ",
"                          . . . o.o.o.o.o.o.. . . . .                     . . . o.o.o.o.o.o.o.o.. . .                           ",
"                      . . o.o.o.o.o.o.o.o.. . . . . W .                 . J Y ^ ^ { { o.o.o.o.o.o.. . .                         ",
"                    . o.o.o.o.o.o.o.{ { ` . . . . . F C .             . k N N Z K Y R ^ ` { o.o.. . . . . .                     ",
"                  . o.o.o.o.{ ` ^ ^ Y Y K . . . . . k g .             . y s g l v Z Z J Y Y ^ ` . . . . . o..                   ",
"                . o.{ ' ^ W R Y K F Z C v . . . . . e .                 . 5 6 e i g k v C Z H K . . . . . o.o..                 ",
"              . ^ W Y Y K Z Z N v k j s s . . . . . .                     . - 1 5 9 e i s g k N . . . . . ^ { { .               ",
"                . . C v v k g s i y 9 6 1 1 . . .                           . . . * ; 1 5 e i s . . . . . K . .                 ",
"                    . . y e 9 5 5 ; - . . .                                       . . . * ; 1 5 9 . . . . .                     ",
"                        . . . . . . .                                                   . . . . . . .                           ",
"                                                                                                                                ",
"                                                                                                                                ",
"                                                                                                                                ",
"                                                                                                                                ",
"                                                                                                                                ",
"                                                                                                                                ",
"                                                                                                                                ",
"                                                                                                                                ",
"                                                                                                                                ",
"                                                                                                                                ",
"                                            . . . . .             . . . . . .                                                   ",
"                                    . . . . & & & & & . . . . . . & & & & & & . . . .                                           ",
"                              . . . $ $ $ $ $ $ $ $ $ $ $ . . $ $ $ $ $ $ $ $ $ $ $ $ . .                                       ",
"                          . . + + + + + + + + + + + + + + + + + + + + + + + + + + + + + + . .                                   ",
"                      . . o o o o o o o o o o o o o o o . . . . o o o o o o o o o o o o o o o . .                               ",
"                    . o o o o o o o o o o . . . . . . . o.. o.o.. . . . . . . o o o o o o o o o o .                             ",
"                  . o o o o o o . . . . . o.o.o.. o.o.o.o.. o.o.o.o.. o.o.o.o.. . . . o o o o o o o .                           ",
"                  . . . . . . . . . . . . . . . . o.o.o.o.. . . . . . . . . . . . . . . . . . . . . .                           ",
"                  . & & & & & & . . X X X X X X . . . . . . X X X X X X X X X X X X . & & & & & & & .                           ",
"                    . & & & & & & & . . . . . X X X X X X X X X X X X X X X . . . . & & & & & & & .                             ",
"                      . & & & & & & & & & & & . . . . . . . . . . . . . . . & & & & & & & & & & .                               ",
"                        . % % % % % % % % % % % % % . . o.o.o.o.. . % % % % % % % % % % % % % .                                 ",
"                          . # # # # # # # # # # # # # # . . . . # # # # # # # # # # # # # # .                                   ",
"                            . . @ @ @ @ @ @ @ @ @ @ @ @ @ @ @ @ @ @ @ @ @ @ @ @ @ @ @ @ . .                                     ",
"                                . . O O O O O O O O O O O O O O O O O O O O O O O O . .                                         ",
"                                    . . . . o o o o o o o o o o o o o o o o . . . .                                             ",
"                                            . . . . . o o o o o o . . . . .                                                     ",
"                                                      . . . . . .                                                               ",
"                                                                                                                                ",
"                                                                                                                                ",
"                                                                                                                                ",
"                                                                                                                                ",
"                                                                                                                                ",
"                                                                                                                                ",
"                                                                                                                                ",
"                                                                                                                                ",
"                                                                                                                                ",
"                                                                                                                                ",
"                                                                                                                                ",
"                                                                                                                                "
};
