/* XPM */
static char *PH_rich1676127052[] = {
/* columns rows colors chars-per-pixel */
"64 64 123 2 ",
"   c None",
".  c black",
"X  c #410000",
"o  c #DF7126",
"O  c #DD7343",
"+  c #DC7457",
"@  c #DB7561",
"#  c #DA777E",
"$  c #D97788",
"%  c #D8799C",
"&  c #D77BBA",
"*  c #FCF78E",
"=  c #FCF791",
"-  c #FCF893",
";  c #FCF894",
":  c #FCF895",
">  c #FCF896",
",  c #FCF897",
"<  c #FCF898",
"1  c #FDF89A",
"2  c #FDF89B",
"3  c #FDF89D",
"4  c #FDF89E",
"5  c #FDF8A0",
"6  c #FDF8A1",
"7  c #FDF9A2",
"8  c #FDF9A3",
"9  c #FDF9A4",
"0  c #FDF9A5",
"q  c #FDF9A6",
"w  c #FDF9A7",
"e  c #FDF9A8",
"r  c #FDF9A9",
"t  c #FDF9AA",
"y  c #FDF9AB",
"u  c #FDF9AC",
"i  c #FDF9AD",
"p  c #FDF9AE",
"a  c #FDF9AF",
"s  c #FDF9B0",
"d  c #FDF9B1",
"f  c #FDFAB1",
"g  c #FDFAB2",
"h  c #FDFAB3",
"j  c #FDFAB4",
"k  c #FDFAB5",
"l  c #FDFAB6",
"z  c #FDFAB7",
"x  c #FDFAB8",
"c  c #FDFAB9",
"v  c #FDFABA",
"b  c #FDFABB",
"n  c #FDFABC",
"m  c #FDFABD",
"M  c #FDFABE",
"N  c #FDFABF",
"B  c #FDFAC0",
"V  c #FDFAC1",
"C  c #FDFBC1",
"Z  c #FDFBC2",
"A  c #FDFBC3",
"S  c #FDFBC4",
"D  c #FDFBC5",
"F  c #FDFBC6",
"G  c #FDFBC7",
"H  c #FDFBC8",
"J  c #FDFBC9",
"K  c #FDFBCA",
"L  c #FDFBCB",
"P  c #FEFBCC",
"I  c #FEFBCD",
"U  c #FEFBCE",
"Y  c #FEFBCF",
"T  c #FEFBD0",
"R  c #FEFCD0",
"E  c #FEFCD1",
"W  c #FEFCD2",
"Q  c #FEFCD3",
"!  c #FEFCD4",
"~  c #FEFCD5",
"^  c #FEFCD6",
"/  c #FEFCD7",
"(  c #FEFCD8",
")  c #FEFCD9",
"_  c #FEFCDA",
"`  c #FEFCDB",
"'  c #FEFCDC",
"]  c #FEFCDD",
"[  c #FEFCDE",
"{  c #FEFCDF",
"}  c #FEFDE0",
"|  c #FEFDE1",
" . c #FEFDE2",
".. c #FEFDE3",
"X. c #FEFDE4",
"o. c #FEFDE5",
"O. c #FEFDE6",
"+. c #FEFDE7",
"@. c #FEFDE8",
"#. c #FEFDE9",
"$. c #FEFDEA",
"%. c #FEFDEB",
"&. c #FEFDEC",
"*. c #FEFDED",
"=. c #FEFDEE",
"-. c #FEFDEF",
";. c #FEFEEF",
":. c #FEFEF0",
">. c #FEFEF1",
",. c #FEFEF2",
"<. c #FEFEF3",
"1. c #FEFEF4",
"2. c #FEFEF5",
"3. c #FEFEF6",
"4. c #FEFEF7",
"5. c #FEFEF8",
"6. c #FEFEF9",
"7. c #FEFEFA",
"8. c #FEFEFB",
"9. c #FEFEFC",
"0. c #FEFEFD",
"q. c #FEFEFE",
"w. c white",
/* pixels */
"                                                                                                                                ",
"                                                                                                                                ",
"                                                                                                                                ",
"                                                                                                                                ",
"                                                                                                                                ",
"                                                                                                                                ",
"                                                                        . . . . . . .                                           ",
"                                                                      . . X.%.4.9.9.. .       . . . .       . . . .             ",
"                  . . . . .                 . . . .               . . . { X.-.-.4.9.9..       . z n .       . 8.9.. .           ",
"            . . . W ( X.-.4.. .             . p ( .             . . Y / ( | %.-.4.9.9..       . f n .       . 4.9.9..           ",
"          . . n F Y ( | %.>.9.. .           . p / .             . F J W { { X.. . . . .       . f v .       . 4.9.9..           ",
"          . f v A . . . %.>.8.9..           . p / .           . . F J W ( . . .               . p v .       . >.9.9..           ",
"          . p z A .     . -.4.9..           . p / .           . v A J . . .                   . e z .       . >.9.9..           ",
"          . e z n .     . %.>.8..           . p / . .         . z A F .                       . e f . .     . -.8.9..           ",
"          . e f v A . . { X.-.. .           . p ( 9..         . z n . .                       . 0 p v . . . . %.4.9.. .         ",
"          . . p z n J W ( | . .             . p / 9..       . . z v .                         . 6 p z A J W { %.>.9.9..         ",
"            . e f n F . . . .               . p / 9..       . p f v .                         . 6 e z n J W ( %.-.8.9..         ",
"            . e p v A . .                   . p ( 9..       . . f v .                         . 4 0 f n F W ( X.%.4.9..         ",
"            . 0 p z n F . . .               . p / 9..         . f z . .                       . < 0 f . . . . . %.4.9..         ",
"            . 6 e z n F Y / . .             . p ( 9..         . p z v . .                     . < 6 p .       . X.>.8..         ",
"            . 4 e f v A J / { . .           . p / 9..         . e z v n . .                   . ; 6 e .       . . -.8..         ",
"            . 4 6 p . . F Y ( | .           . p ( 9..         . . f v n F . . . . . .         . ; 4 0 .         . %.4..         ",
"            . < 6 e . . . Y / { . .         . p / 9..           . . z v A J T ( { | . .       . - 4 0 .         . %.4..         ",
"            . ; 4 0 .   . . W { X.. .       . p ( 9..             . . v A F Y / ( | %..       . * ; 6 .         . X.>..         ",
"            . = < 6 .     . . ( | -..       . p / 9..               . . A F Y W ( | %..       . . ; . .         . X.>..         ",
"            . * < 6 .       . . . . .       . . / . .                 . . . J W ( { . .         . . .           . | . .         ",
"              . . . .                         . . .                       . . . . . .             . .           . . .           ",
"                                                                                                                                ",
"                                                                                                                                ",
"                                                                                                                                ",
"                                                                                                                                ",
"                                                                                                                                ",
"                                                                                                                                ",
"                                                                                                                                ",
"                                            . . . . .             . . . . . .                                                   ",
"                                    . . . . & & & & & . . . . . . & & & & & & . . . .                                           ",
"                              . . . $ $ $ $ $ $ $ $ $ $ $ . . $ $ $ $ $ $ $ $ $ $ $ $ . .                                       ",
"                          . . + + + + + + + + + + + + + + + + + + + + + + + + + + + + + + . .                                   ",
"                      . . o o o o o o o o o o o o o o o . . . . o o o o o o o o o o o o o o o . .                               ",
"                    . o o o o o o o o o o . . . . . . . 9.. 9.9.. . . . . . . o o o o o o o o o o .                             ",
"                  . o o o o o o . . . . . 9.9.9.. 9.9.9.9.. 9.9.9.9.. 9.9.9.9.. . . . o o o o o o o .                           ",
"                  . . . . . . . . . . . . . . . . 9.9.9.9.. . . . . . . . . . . . . . . . . . . . . .                           ",
"                  . & & & & & & . . X X X X X X . . . . . . X X X X X X X X X X X X . & & & & & & & .                           ",
"                    . & & & & & & & . . . . . X X X X X X X X X X X X X X X . . . . & & & & & & & .                             ",
"                      . & & & & & & & & & & & . . . . . . . . . . . . . . . & & & & & & & & & & .                               ",
"                        . % % % % % % % % % % % % % . . 9.9.9.9.. . % % % % % % % % % % % % % .                                 ",
"                          . $ # # # $ # # $ $ # $ # # $ . . . . $ $ # $ # # # # $ $ # $ # # .                                   ",
"                            . . @ + @ @ + @ @ + @ @ + @ @ @ @ @ + @ + @ @ @ @ @ + @ + @ . .                                     ",
"                                . . O O O O O O O O O O O O O O O O O O O O O O O O . .                                         ",
"                                    . . . . o o o o o o o o o o o o o o o o . . . .                                             ",
"                                            . . . . . o o o o o o . . . . .                                                     ",
"                                                      . . . . . .                                                               ",
"                                                                                                                                ",
"                                                                                                                                ",
"                                                                                                                                ",
"                                                                                                                                ",
"                                                                                                                                ",
"                                                                                                                                ",
"                                                                                                                                ",
"                                                                                                                                ",
"                                                                                                                                ",
"                                                                                                                                ",
"                                                                                                                                ",
"                                                                                                                                "
};
