/* XPM */
static char *PH_up1676127052[] = {
/* columns rows colors chars-per-pixel */
"64 64 95 2 ",
"   c None",
".  c black",
"X  c #410000",
"o  c #DF7126",
"O  c #DD7343",
"+  c #DC7457",
"@  c #DB7561",
"#  c #DA777E",
"$  c #D97788",
"%  c #D8799C",
"&  c #D77BBA",
"*  c #DEAEAE",
"=  c #DEAFAF",
"-  c #DFB0B0",
";  c #E0B2B2",
":  c #E0B3B3",
">  c #E0B4B4",
",  c #E1B5B5",
"<  c #E1B6B6",
"1  c #E2B7B7",
"2  c #E2B8B8",
"3  c #E2B9B9",
"4  c #E3B9B9",
"5  c #E3BABA",
"6  c #E3BBBB",
"7  c #E3BCBC",
"8  c #E4BCBC",
"9  c #E4BDBD",
"0  c #E4BEBE",
"q  c #E5BFBF",
"w  c #E5C0C0",
"e  c #E6C1C1",
"r  c #E6C2C2",
"t  c #E6C3C3",
"y  c #E7C4C4",
"u  c #E7C5C5",
"i  c #E8C6C6",
"p  c #E8C7C7",
"a  c #E9C8C8",
"s  c #E9C9C9",
"d  c #E9CACA",
"f  c #EACBCB",
"g  c #EACCCC",
"h  c #EACDCD",
"j  c #EBCECE",
"k  c #EBCFCF",
"l  c #ECD0D0",
"z  c #ECD1D1",
"x  c #ECD2D2",
"c  c #EDD2D2",
"v  c #EDD3D3",
"b  c #EDD4D4",
"n  c #EED5D5",
"m  c #EED6D6",
"M  c #EED7D7",
"N  c #EFD7D7",
"B  c #EFD8D8",
"V  c #EFD9D9",
"C  c #F0DADA",
"Z  c #F0DBDB",
"A  c #F1DCDC",
"S  c #F1DDDD",
"D  c #F1DEDE",
"F  c #F2DFDF",
"G  c #F2E1E1",
"H  c #F3E2E2",
"J  c #F3E3E3",
"K  c #F4E4E4",
"L  c #F4E5E5",
"P  c #F5E6E6",
"I  c #F5E7E7",
"U  c #F6E8E8",
"Y  c #F6E9E9",
"T  c #F6EAEA",
"R  c #F6EBEB",
"E  c #F7EBEB",
"W  c #F7ECEC",
"Q  c #F8EDED",
"!  c #F8EEEE",
"~  c #F8EFEF",
"^  c #F8F0F0",
"/  c #F9F1F1",
"(  c #F9F2F2",
")  c #FAF2F2",
"_  c #FAF3F3",
"`  c #FBF5F5",
"'  c #FBF6F6",
"]  c #FBF7F7",
"[  c #FCF8F8",
"{  c #FCF9F9",
"}  c #FDFAFA",
"|  c #FDFBFB",
" . c #FEFCFC",
".. c #FEFDFD",
"X. c white",
/* pixels */
"                                                                                                                                ",
"                                                                                                                                ",
"                                                                                                                                ",
"                                                                                                                                ",
"                                                                                                                                ",
"                                                                                                                                ",
"                                                                                                                                ",
"                                                                                                                                ",
"                                                                                                                                ",
"                                                                                                                                ",
"                                                                                                                                ",
"                                                                                                                                ",
"                                                                                                                                ",
"                                                                                                                                ",
"                                . . . . . . . . .                               . . . . . . . .                                 ",
"                          . . . . . . . . . . . X.. .                     . . . X.. . . . . . . . . .                           ",
"                      . . X.. . . . . . . . . . ` / / .                 . L T Q / . . . . . . . . . X..                         ",
"                    . X.X.X.X.. . . . . . . . T L L A A .             . l B A A L T . . . . . . . . X.X.. .                     ",
"                  . X.X.X.X.[ ` / / T T L H A A m l l h .             . u d h l b Z H H . . . . . X.X.X.X.X..                   ",
"                . X.[ ` / Q W T L H A Z b b h h p p r .                 . 6 0 r p h l l Z A K L T / / [ X.X.X..                 ",
"              . / Q T T L A A B b l k d d r r 0 4 . .                     . : < 6 0 r p d k l m A H L T Q ` [ X..               ",
"                . . Z b b l h d p u 0 7 6 : . . .                           . . . * : < 0 0 p d h l b Z A L . .                 ",
"                    . . u r 0 6 6 : - . . .                                       . . . * : < 6 r u p . . .                     ",
"                        . . . . . . .                                                   . . . . . . .                           ",
"                                                                                                                                ",
"                                                                                                                                ",
"                                                                                                                                ",
"                                                                                                                                ",
"                                                                                                                                ",
"                                                                                                                                ",
"                                                                                                                                ",
"                                                                                                                                ",
"                                                                                                                                ",
"                                                                                                                                ",
"                                            . . . . .             . . . . . .                                                   ",
"                                    . . . . & & & & & . . . . . . & & & & & & . . . .                                           ",
"                              . . . $ $ $ $ $ $ $ $ $ $ $ . . $ $ $ $ $ $ $ $ $ $ $ $ . .                                       ",
"                          . . + + + + + + + + + + + + + + + + + + + + + + + + + + + + + + . .                                   ",
"                      . . o o o o o o o o o o o o o o o . . . . o o o o o o o o o o o o o o o . .                               ",
"                    . o o o o o o o o o o . . . . . . . X.. X.X.. . . . . . . o o o o o o o o o o .                             ",
"                  . o o o o o o . . . . . X.X.X.. X.X.X.X.. X.X.X.X.. X.X.X.X.. . . . o o o o o o o .                           ",
"                  . . . . . . . . . . . . . . . . X.X.X.X.. . . . . . . . . . . . . . . . . . . . . .                           ",
"                  . & & & & & & . . X X X X X X . . . . . . X X X X X X X X X X X X . & & & & & & & .                           ",
"                    . & & & & & & & . . . . . X X X X X X X X X X X X X X X . . . . & & & & & & & .                             ",
"                      . & & & & & & & & & & & . . . . . . . . . . . . . . . & & & & & & & & & & .                               ",
"                        . % % % % % % % % % % % % % . . X.X.X.X.. . % % % % % % % % % % % % % .                                 ",
"                          . # # # # # # # # # # # # # # . . . . # # # # # # # # # # # # # # .                                   ",
"                            . . @ @ @ @ @ @ @ @ @ @ @ @ @ @ @ @ @ @ @ @ @ @ @ @ @ @ @ @ . .                                     ",
"                                . . O O O O O O O O O O O O O O O O O O O O O O O O . .                                         ",
"                                    . . . . o o o o o o o o o o o o o o o o . . . .                                             ",
"                                            . . . . . o o o o o o . . . . .                                                     ",
"                                                      . . . . . .                                                               ",
"                                                                                                                                ",
"                                                                                                                                ",
"                                                                                                                                ",
"                                                                                                                                ",
"                                                                                                                                ",
"                                                                                                                                ",
"                                                                                                                                ",
"                                                                                                                                ",
"                                                                                                                                ",
"                                                                                                                                ",
"                                                                                                                                ",
"                                                                                                                                "
};
