/* XPM */
static char *_a45ac9f39d9409c98984e6abe4df50awGd7J61xnymdkAjZ[] = {
/* columns rows colors chars-per-pixel */
"64 64 65 1 ",
"  c #8F680F",
". c #98792F",
"X c #9B7B2F",
"o c #9E7D2E",
"O c #9E7C2F",
"+ c #A17F2D",
"@ c #A07E2E",
"# c #A3802E",
"$ c #A6822E",
"% c #A9842D",
"& c #AB862D",
"* c #A9852E",
"= c #AF882E",
"- c #B0892D",
"; c #B18A2D",
": c #B38B2D",
"> c #B58D2D",
", c #BB902B",
"< c #BE922A",
"1 c #BE922B",
"2 c #C1942A",
"3 c #C1942B",
"4 c #C3952A",
"5 c #C3962A",
"6 c #C5972A",
"7 c #C6972A",
"8 c #C2962E",
"9 c #C4972D",
"0 c #C7982A",
"q c #C8992A",
"w c #C9992A",
"e c #CB9A2A",
"r c #CB9B2A",
"t c #CC9B2A",
"y c #CA9B2C",
"u c #CB9C2C",
"i c #CC9C2C",
"p c #CF9E2C",
"a c #CF9F2C",
"s c #CF9F2E",
"d c #D09F2C",
"f c #D1A02C",
"g c #D2A02C",
"h c #D2A12C",
"j c #D3A12C",
"k c #D3A22E",
"l c #D4A22D",
"z c #D7A52F",
"x c #D7A530",
"c c #D8A630",
"v c #DBA830",
"b c #DCA931",
"n c #DDA932",
"m c #DFAC33",
"M c #E0AD33",
"N c #E1AD34",
"B c #E2AE34",
"V c #E2AF35",
"C c #E4AF35",
"Z c #E4B035",
"A c #E6B237",
"S c #E8B336",
"D c #E8B337",
"F c #E9B337",
"G c #EEB83A",
/* pixels */
"                                                                ",
"000000000000000 ww6wwwwwwwwwwwwwwwwddppdppppppp 005,o5wwwwwwwwww",
"0000000000wwwww ttwiytpdppdppdddfffgtwwpwpttwuw ww5*0pppdppdppdp",
"wwwwwwwwwpppdff dddt::wwwttwttfdffflggddffffggg gggaggww6wwwwwpw",
"pppppppfftypyfl llldddddfffffffpuuagggagddfffdd aggaggpp32ypfppp",
"wwwwww0pffdfffg ddtddlddffffffffppwwwwwwwwwwwww wwwww09o.o5wwwww",
"0000006plzffgww w6w6twwwwwwwwwwwq00000wwwwwwwww wwwwww5X.o6wwww0",
"0000000wtCZMppC wwwwwwwwwwwwwwwwqqwwwwppppppddp ppppaau51dufpfu0",
"                                                                ",
"0000000qwwiBiwwpwwwwwwwww6*6q0u tttqtqwwwwwwwwwwwwwtwtidpdddppp ",
"0000000uw0yypw0wwwwwwwwww5<50qa ddgpddppdptgdddddidiiddwyywwwww ",
"000000gudpdpwdupdiddddidp352qdw qqqqqqqqwwwwwwwwtwwwwwww666w6w6 ",
"0000000wwwwwpwwwwwwwwwww8<XX#00 00qqqqq066w6wwdZitwwwwwwwwwww6w ",
"000000wwwwww0w006wwwwwwww6++<0w qqq0qqq2*6wtwdvbbdddidddppdd6w6 ",
"qq00wwpppppppdw6ididppdddfddagg dgggdddgdddddpCzFCdtwittwiwwwww ",
"qqqqwwwwpwttwtw6-wiiwwwyddfdgga gggggpggdjjddddbbvvlddididpppdd ",
"                                                                ",
"$22qqtqqwwwwww0 wwwww05$,<,5<00w0wuZw0000000000 wwwww00000000000",
"<o+20qqt0wwww0M w0w0ww662%2%000wwwwww0w000ww0w0 66www00000000000",
"022qqtddggggggp ggggaapppp2ppdwwBwwwwwwwwwwwMpa wwpbww0twwwwwwww",
"pppuppdzzdggdgq uggaauwuqtqqrrggffldffffffffazz fljdjddgjdddggga",
"qquwqqtttqw6%<$ $5wwwgpdpdppugggfzgjffffffffgag dddddjgdddjjgapu",
"q0wwwwwwqqq2%20 66wwwwwpwppqrqtMzZdwwwwwwww0=up wwwwtwwwt0qqww00",
"00gpugppdddpppp pdpgagwppgwgqqqtZMpwwwwwww050ZZ wwwwwwwwqqqu0000",
"                                                                ",
"02000w00wwwwtqqq0wwwtqqqr00rtqt pffffffffffffxgzddddddddggggga0 ",
"w%00wwwuggpuppppwppdpggpauppddp pwwwwwwwwwwwupZutq0ttteetrrqrgr ",
"2dttgppwqMquqpwwppwtttqqqrrrttq w0wwwwwwwww0wwww0t0ddddddpppaaa ",
"w6wwwww0qqq00tgdpagppppgggguddd ppppfpppdpwpdtddddd00e0ee0t0qqq ",
"6w6w6w00qqqtttwwwuqptqqttqtqtqt rrrruupwtww>wtetttt0e0e00e00qqt ",
"w6w6w6w0qqtddddppppwpjpdpgpppdp pppppppppptdddddddddddddddddddd ",
"wwwwwwwgddddwwttwpwpqtqtqtrrttq rrrrrrrqttttww0e00000e00e0qqqqq ",
"                                                                ",
"0rq0tqrqrrrrrrr gaggggdpagggggg0qqqqtddddjdjddg gpgggw0wwwqqqqqq",
"qqrrqppgppppppg rqqtqrwprrrrqrwuqqq0qqttq:qqttq agaggpdpugagggtw",
"pppgguuurrrrrrq qqqppaddpapppappdddddggdgjjgdgj rrrrwpwwwwugggtt",
"rqtjgaggggagggg ggarwwtwrrrruwpwpwuwttgggagqggp aadpdttp5ppgggdd",
"ppgggggaagaggdg gggappdppppppappwgupddgwq002$2q qqqqwww<55wwwwww",
"wwwwqqqrtqqqqtq qqq065%0tqqqwwwwwwwwwww000q<#2q q000w00++5000000",
"050500gdgqqqqqq qq00*<%qqqqqwwwwwwwwwwwwrqr0q20 0000005555000000",
"                                                                ",
"w55o$5wwtqrrrrrrttrrraZgtw:w>&0 pupwttwpwwwpuggpaggagpggdpffdft ",
"uw0w5wtgdpppppppgpppgbvacdydipp dpwgtdddgupdgggggggggadgdflfgpd ",
"wpwwwwpwtquurrrrrrrrpZapt:wtwpw qrqpttwwwwpwwwpwrrqpwupwtwtwwpw ",
"ppppgppppppppppppppppabgddiiddd pgppppddpgpwgawgaapppugppguaaap ",
"wwwwwwwwwwwwwwwwwwww6upmwwww66w tqqqqqwwpwrqw056qq0rwwww0wwwww0 ",
"0000wwwwwww0wwwwwwwwwwwwwww4%6w qqqrqw060wuq0<oo20000000w00000w ",
"0000ppppppapppppppppppppdid6ttd pppppt5twpugw5$50rqqwwwwwwwwwww ",
"                                                                ",
"0000wwww00%$560 w6=0wwqqqqddddtdpaptawp<uuppgdp gaggddjdjddddddd",
"wwwppppappppppp dpdzdppdddqqqtqq0w6w=000qq0rwpw qqr0qqqq0t0et0tq",
"pppwwwwwwwuuqpw -00-pqqtttqq0tqqwww6550qtqquw0p q0rqtqqqt0e00t0t",
"www000wwqgppppp p2ppppdpdpdpppddfwfpp2uppggzwfp pggugpugdpdwddtd",
"wwwwwwagggqtrrr q-=0pqtqtqtttqqtwppuuwqpqtMgpww rrtqrru0wwww0tww",
"ppppaaggggddddp puprwgpdddddddpdpppyppwpdpzjfff uggpupwpww6ww6ww",
"wwwwww0wqqqqqqq q200ruq0000qqtqtwtttpwpw-wtpmBw qtqttgSZtwwwwwww",
"                                                                ",
"q00pgugupggpuppgp2uppdvdddddwtt wpqptrrrwwwuwwpwffufgcvgdddjdjd ",
"0qqtrrrrqqpptqwuurrrqumpqtudgpd ppuwppppppppggupfw05:ASawwwww6& ",
"0pdpguppddpwpppdgwpaggagddawwww uwwpr0tqwwwwwww=0www9aAawwwwwww ",
"rttrqrrrrrrrwpqtwpqrtttqqtqtttw wwwtqqqqwwwwwwwaffffggzgffffddd ",
"uupgggggaggggggggggagggdgddgddd dddtugppppppppgpffffapagffffddj ",
"qqqrpggpgggpdpgapggggjddggddddd dwqqqqqqwwwwwwwwwmuwwpu0pZZpwwt ",
"000qqrqqr0qtqrqrwttjjjtqtqqqwww ww0000qqw6w6w60wwwwwuZu0fGGa0tC "
};
