/* XPM */
static char *b6978dc62761457cd086a77961d2380dgAJawAObaSzZLFgO[] = {
/* columns rows colors chars-per-pixel */
"64 64 61 1 ",
"  c None",
". c black",
"X c #696A6A",
"o c #879297",
"O c #879298",
"+ c #879398",
"@ c #889398",
"# c #889499",
"$ c #89949A",
"% c #89959A",
"& c #89959B",
"* c #8A969C",
"= c #8B979D",
"- c #8B989E",
"; c #8C989F",
": c #8C999F",
"> c #8D9AA0",
", c #8D9AA1",
"< c #8D9BA1",
"1 c #8E9BA2",
"2 c #8E9CA3",
"3 c #8F9CA3",
"4 c #8F9DA4",
"5 c #8F9DA5",
"6 c #8F9EA5",
"7 c #909EA5",
"8 c #909EA6",
"9 c #909FA6",
"0 c #919FA7",
"q c #91A0A7",
"w c #91A0A8",
"e c #92A0A8",
"r c #92A1A8",
"t c #92A1A9",
"y c #93A2AA",
"u c #93A2AB",
"i c #93A3AB",
"p c #94A3AC",
"a c #94A4AC",
"s c #94A4AD",
"d c #95A5AD",
"f c #95A5AE",
"g c #95A6AE",
"h c #95A6AF",
"j c #96A6AF",
"k c #96A7AF",
"l c #96A7B0",
"z c #97A7B0",
"x c #97A8B1",
"c c #97A8B2",
"v c #98A9B2",
"b c #98A9B3",
"n c #98AAB3",
"m c #99AAB3",
"M c #99AAB4",
"N c #99ABB4",
"B c #99ABB5",
"V c #9AABB5",
"C c #9AACB6",
"Z c #9BADB7",
"A c white",
/* pixels */
"                                                                ",
"                                                                ",
"                                                                ",
"                                                                ",
"                            ........                            ",
"                           .;>>258ZA.                           ",
"                          .;;......fA.                          ",
"                      .....>.25qttf.f.....                      ",
"                ......##*-.2.8qqaaf.x.ZZAA......                ",
"             ...ooooo@##-;.2.qtyafk.v.ZZZZZZAZAA...             ",
"           ..ooooooo@#=;;2.8.ttafkx.V.ZZZZZZZZZZZZA..           ",
"           ..oooooo##*;;228qqyffkxxZZZZZZZZZZZZZZZZ..           ",
"           .o...oo###--225qqtaffxvVZZZZZZZZZZZZZ...A.           ",
"           .O##*......222qttfffvxZZZZZZZZZ......ZZZZ.           ",
"           .##**=;;>55....................ZZZZZZZZZZ.           ",
"           ..##*-;2225qqttifflxvvZZZZZZZZZZZZZZZZZZ..           ",
"             ...;>>>588ttipfflxvVVZZZZZZZZZZZZZZ...             ",
"               .......8ttipfllxvvZZZZZZZZZ.......               ",
"               .5tfvZZ....................2qtxxZ.               ",
"               .5qfxZZX#,800fVZZX2ttfVZZZX5tplVZ.               ",
"               .2tfxVZX#,,8llMZZX28ifnZZZX5qtxVZ.               ",
"               .2ttlVZX*,180lMZZX20ilxZZZX8tfxVZ.               ",
"                .8ilVZX*,100lcZZX10ifVZZZX8tfxV.                ",
"                .8tfVZX#,800lcZZX10ifvZZZX8tflZ.                ",
"                .8tfvZX#>50ilcCZX10ilVCCZXqtfvZ.                ",
"                .8tfxZZX>>0ilcCZX50ipcZZX28afvZ.                ",
"                .7tfxZZX,10ilcZZX50ilcZZX2ttlVZ.                ",
"                .2qaxVZX,10ilMZZX10ilVZZX5qaxvZ.                ",
"                .2qplVZX*10llcZZX80ilnCZX5qafVZ.                ",
"                .>tyfVZX,100lcZZX10iicZZX5tfxVZ.                ",
"                 .8yfVZX,10ilcCZX10ilcZZX8tfxZ.                 ",
"                 .8yfvZX*10ilcCCX100lVZZX8tfxV.                 ",
"                 .8tllCX,80ilcZZX10llcCCX8yfvZ.                 ",
"                 .10pMCX,100lVZZX800lcZZX8afvZ.                 ",
"                 .80plCX,,0llcZZX28ilbZZXqyfvZ.                 ",
"                 .10pzCZX,00lcZCX28ilbZX2tflVZ.                 ",
"                 .10ilBZX280lcCX,20ulcCX5tylVZ.                 ",
"                 .>00lMCX28llcCX,800lcCX5tfxVZ.                 ",
"                  .0ilbZX180lcZX,,0llbZX8tfxV.                  ",
"                  .50lcCX18llVZX,,00lbZX8tllZ.                  ",
"                  .5tfxZX800ccZX,18ulcCX80lcZ.                  ",
"                  .1ttxVX10iccZX&,0ulcZX0llcZ.                  ",
"                  .5qalVX100lcCX,,0ulcZX0ilcZ.                  ",
"                  .18ifVX80ilcCX,80ulbZX0ilMZ.                  ",
"                  .28ylvX10ilcZX,,0ulbCX0llVC.                  ",
"                  .>8tfVX10ilnZX,,0ulbCX0ilVZ.                  ",
"                   .5tfvCX0illZX,,8ulcX80llV.                   ",
"                   .2qfxCX0ilcZX,,80lcX8plcC.                   ",
"                   .50flVX8pfnCX,10ifVXqtfxZ.                   ",
"                   .1tplVXttlnZX,10ilxX8afVZ.                   ",
"                   ..0ilVX8pfnZX,,0ianXqtlv..                   ",
"                     ...VX0tlvZX,18ilnXt...                     ",
"                        ....fVZX*10i....                        ",
"                            ........                            ",
"                                                                ",
"                                                                ",
"                                                                ",
"                                                                ",
"                                                                ",
"                                                                ",
"                                                                ",
"                                                                ",
"                                                                ",
"                                                                "
};
