/* XPM */
static char *e03cc8f7c756452488d84365c9ef0680s2qUEX1hjdJlTiFY[] = {
/* columns rows colors chars-per-pixel */
"128 64 6 1 ",
"  c None",
". c black",
"X c #AC3232",
"o c #D4AF37",
"O c #D0D0D0",
"+ c white",
/* pixels */
"                                                                                                                                ",
"                                                                                                                                ",
"             ......                           ........                        ....                        ........              ",
"          ...oooooo...                      ..oooo..oo.                       .oo.                       .oo..oooo..            ",
"        ..oooooooooooo..                   .oooooooo.oo.                      .oo.                      .oo.oooooooo.           ",
"       .oooooooooooooooo.                 .ooooOOoooo.oo.                     .oo.                     .oo.ooooOOoooo.          ",
"      .oooooooOOOOooooooo.               .oooOOOOOOooo.oo.                    .oo.                    .oo.oooOOOOOOooo.         ",
"     .oooooOOOOOOOOOOooooo.              .ooOOOOOOOOoo.oo.                    .oo.                    .oo.ooOOOOOOOOoo.         ",
"    .oooooOOOOOOOOOOOOooooo.            .oooOOOOOOOOooo.oo.                   .oo.                   .oo.oooOOOOOOOOooo.        ",
"    .ooooOOOOOOOOOOOOOOoooo.            .ooOOOOOOOOOOoo.oo.                   .oo.                   .oo.ooOOOOOOOOOOoo.        ",
"   .ooooOOOOOOOOOOOOOOOOoooo.           .ooOO..OOO..Ooo.oo.                   .oo.                   .oo.ooO..OOOOO.Ooo.        ",
"   .oooOOOOO..OOOO..OOOOOooo.           .ooO.+.OO.+.Ooo.ooo.                  .oo.                  .ooo.ooO.+.OOO.OOoo.        ",
"   .oooOOOO.+.OOOO.+.OOOOooo.          .oooO...OO...Oooo.oo.                  .oo.                  .oo.oooO...OO...Oooo.       ",
"  .ooooOOOO...OOOO...OOOOoooo.         .ooOOOOOOOOOOOOoo.oo.                  .oo.                  .oo.ooOOOOOOOOOOOOoo.       ",
"  .oooOOOOOOOOOOOOOOOOOOOOooo.         .ooOOOOOOOOOOOOoo.oo.                  .oo.                  .oo.ooOOOOOOOOOOOOoo.       ",
"  .oooOOOOOOOO....OOOOOOOOooo.         .ooOOOO...OOOOOoo.oo.                  .oo.                  .oo.ooOOOOO...OOOOoo.       ",
"  .oooOOOOOOOOO..OOOOOOOOOooo.         .ooOOOOO.OOOOOOoo.oo.                  .oo.                  .oo.ooOOOOOO.OOOOOoo.       ",
"  .oooOOOOOOOOOOOOOOOOOOOOooo.         .ooOOOOOOOOOOOOoo.oo.                  .oo.                  .oo.ooOOOOOOOOOOOOoo.       ",
"  .ooooOOOOO..O..O..OOOOOoooo.         .ooOOO.O.O.OOOOoo.oo.                  .oo.                  .oo.ooOOOO.O.O.OOOoo.       ",
"   .oooOOOO.OOO..OOO.OOOOooo.          .oooO.OO.OO.OOooo.oo.                  .oo.                  .oo.oooOO.OO.OO.Oooo.       ",
"   .oooOOOO.OOO..OOO.OOOOooo.           .ooO.OO.OO.OOoo.ooo.                  .oo.                  .ooo.ooOO.OO.OO.Ooo.        ",
"   .ooooOOOO...XX...OOOOoooo.           .ooOO..X..OOOoo.oo.                   .oo.                   .oo.ooOOO..X..OOoo.        ",
"    .ooooOOOOO.XX.OOOOOoooo.            .ooOOO.X.OOOOoo.oo.                   .oo.                   .oo.ooOOOO.X.OOOoo.        ",
"    .oooooOOOOO..OOOOOooooo.            .oooOOO.OOOOooo.oo.                   .oo.                   .oo.oooOOOO.OOOooo.        ",
"     .oooooOOOOOOOOOOooooo.              .ooOOOOOOOOoo.oo.                    .oo.                    .oo.ooOOOOOOOOoo.         ",
"      .oooooooOOOOooooooo.               .oooOOOOOOooo.oo.                    .oo.                    .oo.oooOOOOOOooo.         ",
"       .oooooooooooooooo.                 .ooooOOoooo.oo.                     .oo.                     .oo.ooooOOoooo.          ",
"        ..oooooooooooo..                   .oooooooo.oo.                      .oo.                      .oo.oooooooo.           ",
"          ...oooooo...                      ..oooo..oo.                       .oo.                       .oo..oooo..            ",
"             ......                           ........                        ....                        ........              ",
"                                                                                                                                ",
"                                                                                                                                ",
"                                                                                                                                ",
"                                                                                                                                ",
"             ......                           ........                        ....                        ........              ",
"          ...oooooo...                      ..oooo..oo.                       .oo.                       .oo..oooo..            ",
"        ..oooooooooooo..                   .oooooooo.oo.                      .oo.                      .oo.oooooooo.           ",
"       .oooooooooooooooo.                 .ooooOOoooo.oo.                     .oo.                     .oo.ooooOOoooo.          ",
"      .oooooooOOOOooooooo.               .oooOOOOOOooo.oo.                    .oo.                    .oo.oooOOOOOOooo.         ",
"     .oooooOOOOOOOOOOooooo.              .ooOOOOOOOOoo.oo.                    .oo.                    .oo.ooOOOOOOOOoo.         ",
"    .oooooOOOOOOOOOOOOooooo.            .oooOOOOOOOOooo.oo.                   .oo.                   .oo.oooOOOOOOOOooo.        ",
"    .ooooOOOOOOOOOOOOOOoooo.            .ooOOOOOOOOOOoo.oo.                   .oo.                   .oo.ooOOOOOOOOOOoo.        ",
"   .ooooOOOOOOOOOOOOOOOOoooo.           .ooOO..OOOO.Ooo.oo.                   .oo.                   .oo.ooO..OOO..OOoo.        ",
"   .oooOOOOO..OOOOOO.OOOOooo.           .ooO.+.OOO.OOoo.ooo.                  .oo.                  .ooo.ooO.+.OO.+.Ooo.        ",
"   .oooOOOO.+.OOOOO.OOOOOooo.          .oooO...OO...Oooo.oo.                  .oo.                  .oo.oooO...OO...Oooo.       ",
"  .ooooOOOO...OOOO...OOOOoooo.         .ooOOOOOOOOOOOOoo.oo.                  .oo.                  .oo.ooOOOOOOOOOOOOoo.       ",
"  .oooOOOOOOOOOOOOOOOOOOOOooo.         .ooOOOOOOOOOOOOoo.oo.                  .oo.                  .oo.ooOOOOOOOOOOOOoo.       ",
"  .oooOOOOOOOO....OOOOOOOOooo.         .ooOOOO...OOOOOoo.oo.                  .oo.                  .oo.ooOOOOO...OOOOoo.       ",
"  .oooOOOOOOOOO..OOOOOOOOOooo.         .ooOOOOO.OOOOOOoo.oo.                  .oo.                  .oo.ooOOOOOO.OOOOOoo.       ",
"  .oooOOOOOOOOOOOOOOOOOOOOooo.         .ooOOOOOOOOOOOOoo.oo.                  .oo.                  .oo.ooOOOOOOOOOOOOoo.       ",
"  .ooooOOOOO..O..O..OOOOOoooo.         .ooOOO.O.O.OOOOoo.oo.                  .oo.                  .oo.ooOOOO.O.O.OOOoo.       ",
"   .oooOOOO.OOO..OOO.OOOOooo.          .oooO.OO.OO.OOooo.oo.                  .oo.                  .oo.oooOO.OO.OO.Oooo.       ",
"   .oooOOOO.OOO..OOO.OOOOooo.           .ooO.OO.OO.OOoo.ooo.                  .oo.                  .ooo.ooOO.OO.OO.Ooo.        ",
"   .ooooOOOO...XX...OOOOoooo.           .ooOO..X..OOOoo.oo.                   .oo.                   .oo.ooOOO..X..OOoo.        ",
"    .ooooOOOOO.XX.OOOOOoooo.            .ooOOO.X.OOOOoo.oo.                   .oo.                   .oo.ooOOOO.X.OOOoo.        ",
"    .oooooOOOOO..OOOOOooooo.            .oooOOO.OOOOooo.oo.                   .oo.                   .oo.oooOOOO.OOOooo.        ",
"     .oooooOOOOOOOOOOooooo.              .ooOOOOOOOOoo.oo.                    .oo.                    .oo.ooOOOOOOOOoo.         ",
"      .oooooooOOOOooooooo.               .oooOOOOOOooo.oo.                    .oo.                    .oo.oooOOOOOOooo.         ",
"       .oooooooooooooooo.                 .ooooOOoooo.oo.                     .oo.                     .oo.ooooOOoooo.          ",
"        ..oooooooooooo..                   .oooooooo.oo.                      .oo.                      .oo.oooooooo.           ",
"          ...oooooo...                      ..oooo..oo.                       .oo.                       .oo..oooo..            ",
"             ......                           ........                        ....                        ........              ",
"                                                                                                                                ",
"                                                                                                                                "
};
