/* XPM */
static char *_7a125e0a3f9426b87bd6eb166d14986CxtHcwljDZkZUKTC[] = {
/* columns rows colors chars-per-pixel */
"64 64 15 1 ",
"  c black",
". c #0B0B0B",
"X c #1E1E1E",
"o c #303030",
"O c #3C3C3C",
"+ c #494949",
"@ c #575757",
"# c #8A6F30",
"$ c #AF882E",
"% c #C6972A",
"& c #C0942E",
"* c #C9992A",
"= c #CC9C2C",
"- c #D1A02C",
"; c #E0AD33",
/* pixels */
"################################################################",
"*****-#---$****----------#-**********-#---$****----------#-*****",
"****--#----------********#*&$&******--#----------********#*&$&**",
"****-;#;***********------#--&---****-;#;***********------#--&---",
"################################################################",
"**&----------&-*#**************#**&--#@++++++++++++++@#&$&*****#",
"*************$&*#***$**;;-----*#*****#++++++++++++++++#*&**---*#",
"********&***----#-------;;-----#*****#+OOOOOOOOOOOOOOO#*****---#",
"######################################OOOOOOOOOOOOOOOO##########",
"&&*#---&-----#-*;*****;*********&&*#OOOoooooooooooooooooOOO#****",
"***#-&$$$&&--#------------------***#OOooooooooooooooooooooO#----",
"*--#---&&----#**;=***%%;*********--#Ooooooooooooooooooooooo#-***",
"######################################oXoXoXoXoXoXoXoXoXoo######",
"*---****#***********#*****------*--*-#XXXXXXXXXXXXXXXXXXXo#-----",
"********#***********#****************#XXXXXXXXXXXXXXXXXXXX#--***",
"****--**#***********#****************#XX.X.X.X.X.X.X.X.XX####***",
"######################################X.X.X.X.X.X.X.X.###***;###",
"---*******#-------------***#**-*---#XX............####***--**#-*",
"----------#---------**$****#&***---#X..........###*****--****#**",
"***--*****#$***************#&******#..........#****---***####***",
"########################################... . #;*--***##########",
"***#*******-******#*****************&$$#.. . .#;;*####...#******",
"***#**************#****&********&&*****#. .   ####.   ...#******",
"**-#--------------#&--*$**********-****#               ..#******",
"########################################.   .   .   .   .#######",
"--******$*********&***********#*--***#                   .#***#*",
"***--****$***********;********#****--#                    #***#*",
"********************$*;****;**#******#                    #;**#*",
"################################################################",
"#-------------*********#***;****#-----------------*****#***;****",
"#----------------------#--------#----------------------#--------",
"#*********-************#*****;*;#*********-************#*****;*;",
"################################################################",
"*****-#---$****----------#-**********-#---$****----------#-*****",
"****--#----------********#*&$&******--#----------********#*&$&**",
"***@@@@@@@@@@@@@@@@@@@@@@@@@@---***@@@@@@@@@@@@@@@@@@@@@@@@@@---",
"###@++++++++++++++++++++++++o######@++++++++++++++++++++++++o###",
"**&@+XXXXXXXXXXXXXXXXXXXXXX+o**#**&@+XXXXXXXXXXXXXXXXXXXXXX+o**#",
"***@+X++++++++++++++++++++X+o-*#***@+X@@@@@@@@@@@@@@@@@@@X+Xo-*#",
"***@+X++++++++++++++++++++X+o--#***@+X@+++++++++++++++++@X+Xo--#",
"###@+X++++++++++++++++++++X+o######@+X++OOOOOOOOOOOOOOO++X+Xo###",
"&&*@+X++++++++++++++++++++X+o***&&*@+X+OOOOOOOOOOOOOOOOO+X+Xo***",
"***@+X+++++++++++o++o+++++X+o---***@+XOOoooooooooooooooOOX+Xo---",
"*--@+X+++ ++++++oooooo++++X+o****--@+XOoooooooooooooooooOX+X...*",
"###@+X++.@.++++o+o++o+o+++X+o######@+XoooXoXoXoXoXoXoXoooX+X@@@.",
"*--@+X++.@.++++o+o++o+o+++X+o---*--@+XooXoXXXXXXXXXXXoXooX+X..@.",
"***@+X++.+.++++o+o++o+++++X+o******@+XoXXXXXXXXXXXXXXXXXoX+Xo.+.",
"***@+X++.+.+++++oooooo++++X+o******@+XXXXXXXXXXXXXXXXXXXXX+Xo.+.",
"###@+X++.+.++++++o++o+o+++X+o######@+XXXXX.X.X.X.X.X.XXXXX+Xo.+.",
"---@+X++.+.++++++o++o+o+++X+o*-*---@+XXXX.X.X.X.X.X.X.XXXX+X..+.",
"---@+X++.+.++++o+o++o+o+++X+o***---@+XXX.X...........X.XXX+X+++.",
"***@+X+++ ++++++oooooo++++X+o******@+XX.X.............X.XX+X...*",
"###@+X+++++++++++o++o+++++X+o######@+X.X...............X.X+Xo###",
"***@+X++++++++++++++++++++X+o******@+XX.................XX+Xo***",
"***@+X++++++++++++++++++++X+o******@+X....... . . .......X+Xo***",
"**-@+X++++++++++++++++++++X+o*****-@+X...... . . . ......X+Xo***",
"###@+X++++++++++++++++++++X+o######@+X..... . . . . .....X+Xo###",
"--*@+X++++++++++++++++++++X+o*#*--*@+X.... . .   . . ....X+Xo*#*",
"***@+XXXXXXXXXXXXXXXXXXXXXX+o*#****@+XXXXXXXXXXXXXXXXXXXXXX+o*#*",
"***@++++++++++++++++++++++++o*#****@++++++++++++++++++++++++o*#*",
"###oooooooooooooooooooooooooo######oooooooooooooooooooooooooo###",
"#-------------*********#***;****#-------------*********#***;****",
"#----------------------#--------#----------------------#--------",
"#*********-************#*****;*;#*********-************#*****;*;"
};
