/* XPM */
static char *_e051b9b44b347a790d70074195baab9PsjYEv0yaE7jR023[] = {
/* columns rows colors chars-per-pixel */
"96 64 7 1 ",
"  c None",
". c black",
"X c #410000",
"o c #DC7457",
"O c #DA7882",
"+ c #E5BFBF",
"@ c white",
/* pixels */
"                                                                                                ",
"                                                                                                ",
"                                                                                                ",
"                                                                                                ",
"                                                                                                ",
"                                                                                                ",
"                                                                                                ",
"       .......     .......             .......     .......             .......     .......      ",
"     ......@@+.   .++....+.          ..@....@+.   .@@....@.          ..+++++++.   .+++++++.     ",
"    .+@.....+.    .+@....@+.        .+@@@@+++.    .++++@@@+.        .++@...@@.    .@@...@@+.    ",
"    ..++.....      ......+..        ..++++...      ...++++..        ..@......      ......@..    ",
"      .....          .....            ....            ....            ....            ....      ",
"                                                                                                ",
"                                                                                                ",
"                                                                                                ",
"                                                                                                ",
"            ...   ...                       ...   ...                       ...   ...           ",
"         ...OOO...OOO...                 ...OOO...OOO...                 ...OOO...OOO...        ",
"       ..OOOoooooooooOOO..             ..OOOoooOOOoooOOO..             ..OOOoooOOOoooOOO..      ",
"      .OOooo.........oooOO.           .OOooo.........oooOO.           .OOooo.........oooOO.     ",
"      .......XXXXXXX.......           .......XXXXXXX.......           .......XXXXXXX.......     ",
"      .OOO.....XX.....OOOO.           .OOO.....XX.....OOOO.           .OOO.....XX.....OOOO.     ",
"       .ooOOOO....OOOOooo.             .ooOOOO....OOOOooo.             .ooOOOO....OOOOooo.      ",
"        .oooooOOOOooooo..               .oooooOOOOooooo..               .oooooOOOOooooo..       ",
"         ...oooooooo...                  ...oooooooo...                  ...oooooooo...         ",
"            ........                        ........                        ........            ",
"                                                                                                ",
"                                                                                                ",
"                                                                                                ",
"                                                                                                ",
"                                                                                                ",
"                                                                                                ",
"                                                                                                ",
"                                                                                                ",
"                                                                      .......       ......      ",
"                                                                     .       .     .      .     ",
"                                                                    .                      .    ",
"                                                                                                ",
"                                                                       ......       .....       ",
"       .......     .......            ........     .......            .++@....     .+++@..      ",
"     ...@@++++.   ....@+++.          .+++@...@.   .++++@...          .++@@...@.   .+++@@...     ",
"    .@...@@++.    ....@@+++.        .+++@@....    .+++@@....        .+++@@....    .+++@@....    ",
"    .@...@...      ...@+++..        ..+++@...      ...+@....        ..+++@...      .+++@....    ",
"     .....            ....            ....            ....            ......        ......      ",
"                                                                                                ",
"                                                                                                ",
"                                                                                     .....      ",
"                                                                                 ....OOOOO.     ",
"            ...   ...                       ...   ...                         ...OOOOoooooO.    ",
"         ...OOO...OOO...                 ...OOO...OOO...                   ...OOOoooo....oo.    ",
"       ..OOOoooOOOoooOOO..             ..OOOoooOOOoooOOO..                .OOOoooo...XXXX.o.    ",
"      .OOooo.........oooOO.           .OOooo.........oooOO.             ..Oooo....XXXXXXXX.     ",
"      .......XXXXXXX.......           .......XXXXXXX.......           ..OOo...XXXXXXXXXXXX..    ",
"      .OOO.....XX.....OOOO.           .OOO.....XX.....OOOO.             ..oOO.XXXXXXXXXXXX.O.   ",
"       .ooOOOO....OOOOooo.             .ooOOOO....OOOOooo.                .ooO.XXXXXXXXXXX.o.   ",
"        .oooooOOOOooooo..               .oooooOOOOooooo..                  .ooO..XXXXXXXX.Oo.   ",
"         ...oooooooo...                  ...oooooooo...                     .ooOO...XXXX.Oo.    ",
"            ........                        ........                         .oooOOO....Ooo.    ",
"                                                                              ..ooooOOOOoo.     ",
"                                                                                ...oooooo.      ",
"                                                                                   ......       ",
"                                                                                                ",
"                                                                                                ",
"                                                                                                "
};
