/* XPM */
static char *_59edd1c13b14039c9ede1a27c0ae259Bdq0Yujxzd5sQH5m[] = {
/* columns rows colors chars-per-pixel */
"128 64 6 1 ",
"  c None",
". c black",
"X c #FB6700",
"o c #F3870B",
"O c #FFF300",
"+ c #FFFBF0",
/* pixels */
"                                                                                                                                ",
"                                                                                                                                ",
"            ........                         ......                            ..                            ......             ",
"          ..++++++oo..                      .++++oo.                          .++.                          .oo++++.            ",
"         .+++++OOOOooo.                    .+++OOOoo.                        .+++O.                        .ooOOO+++.           ",
"        .+++OOOOOOOOOoo.                   .++OOOOoo.                        .++OO.                        .ooOOOO++.           ",
"       .+++OOOOOOOOOOOoo.                 .+++OOOOOoo.                       .++OO.                       .ooOOOOO+++.          ",
"       .++OOOOOOOOOOOOoo.                 .+++OOOOOoo.                       .++OO.                       .ooOOOOO+++.          ",
"      .++OOOOOOOOOOOOOOoo.               .+++OOOOOOOoo.                      .++OO.                      .ooOOOOOOO+++.         ",
"      .++OOOOOOOOOOOOOOoo.               .+++OOOOOOOoo.                      .+OOO.                      .ooOOOOOOO+++.         ",
"      .++OOOOOOOOOOOOOOoo.               .++OOOOOOOOoo.                      .+OOO.                      .ooOOOOOOOO++.         ",
"      .++OOOOoOOOOoooOOoo.               .++OOoOOooOoo.                      .OOOO.                      .ooOOoOOooO++.         ",
"      .+OOOOo+oOOo++OoOOo.               .++Oo+Oo++ooo.                      .OOOO.                      .ooOo+Oo++o++.         ",
"      .+OOOo+OoOo+XXXOoOo.               .++o+OooXXOoo.                      .OOOO.                      .ooo+OooXXOo+.         ",
"      .+OOo+XOoOoOXOoOoOo.               .++oXOooXOOoo.                      .OOOO.                      .oooXOooXOOo+.         ",
"      .+Oo+XXOoOOXOoOXOOo.               .+o+XOoOOoXoo.                      .OOOo.                      .oo+XOoOOoX++.         ",
"      .OOoOOOOOXOOoOXOOOX.               .+oOOOXOoOOoX.                      .OOOo.                      .XoOOOXOoOO++.         ",
"      .OOOXXXOXOOoOXooOOX.               .++XXOoOOXooX.                      .OOOo.                      .XoXXOoOOXo++.         ",
"      .OOOOOoOXOoOOOOOXOX.               .++OoOooOOOXX.                      .OOOo.                      .XXOoOooOOOX+.         ",
"      .OOOOOOXOOOXXXXXOOX.               .++OOXOOXXXXX.                      .OOoo.                      .XXOOXOOXXX++.         ",
"      .oOOOOOOOOOOOOOOOXX.               .++OOOOOOOOXX.                      .OOoo.                      .XXOOOOOOOO++.         ",
"      .oOOOOOOOOOOOOOOOXX.               .++OOOOOOOOXX.                      .OOoo.                      .XXOOOOOOOO++.         ",
"      .oOOOOOOOOOOOOOOOXX.               .+++OOOOOOOXX.                      .OooX.                      .XXOOOOOOO+++.         ",
"      .ooOOOOOOOOOOOOOOXX.               .+++OOOOOOOXX.                      .OooX.                      .XXOOOOOOO+++.         ",
"       .oOOOOOOOOOOOOOXX.                 .+++OOOOOXX.                       .OooX.                       .XXOOOOO+++.          ",
"       .ooOOOOOOOOOOOXXX.                 .+++OOOOXXX.                       .OoXX.                       .XXXOOOO+++.          ",
"        .ooOOOOOOOOOXXX.                   .o+OOOXXX.                        .ooXX.                        .XXXOOO+o.           ",
"         .ooOOOOXXXXXX.                    .ooooXXXX.                        .oXXX.                        .XXXXoooo.           ",
"          ..XXXXXXXX..                      .ooXXXX.                          .XX.                          .XXXXoo.            ",
"            ........                         ......                            ..                            ......             ",
"                                                                                                                                ",
"                                                                                                                                ",
"                                                                                                                                ",
"                                                                                                                                ",
"            ........                         ......                            ..                            ......             ",
"          ..++++++oo..                      .++++oo.                          .++.                          .oo++++.            ",
"         .+++++OOOOooo.                    .+++OOOoo.                        .+++O.                        .ooOOO+++.           ",
"        .+++OOOOOOOOOoo.                   .++OOOOoo.                        .++OO.                        .ooOOOO++.           ",
"       .+++OOOOOOOOOOOoo.                 .+++OOOOOoo.                       .++OO.                       .ooOOOOO+++.          ",
"       .++OOOOOOOOOOOOoo.                 .+++OOOOOoo.                       .++OO.                       .ooOOOOO+++.          ",
"      .++OOOOOOOOOOOOOOoo.               .+++OOOOOOOoo.                      .++OO.                      .ooOOOOOOO+++.         ",
"      .++OOOOOOOOOOOOOOoo.               .+++OOOOOOOoo.                      .+OOO.                      .ooOOOOOOO+++.         ",
"      .++OOOOOOOOOOOOOOoo.               .++OOOOOOOOoo.                      .+OOO.                      .ooOOOOOOOO++.         ",
"      .++OOOOoOOOOoooOOoo.               .++OOoOOooOoo.                      .OOOO.                      .ooOOoOOooO++.         ",
"      .+OOOOo+oOOo++OoOOo.               .++Oo+Oo++ooo.                      .OOOO.                      .ooOo+Oo++o++.         ",
"      .+OOOo+OoOo+XXXOoOo.               .++o+OooXXOoo.                      .OOOO.                      .ooo+OooXXOo+.         ",
"      .+OOo+XOoOoOXOoOoOo.               .++oXOooXOOoo.                      .OOOO.                      .oooXOooXOOo+.         ",
"      .+Oo+XXOoOOXOoOXOOo.               .+o+XOoOOoXoo.                      .OOOo.                      .oo+XOoOOoX++.         ",
"      .OOoOOOOOXOOoOXOOOX.               .+oOOOXOoOOoX.                      .OOOo.                      .XoOOOXOoOO++.         ",
"      .OOOXXXOXOOoOXooOOX.               .++XXOoOOXooX.                      .OOOo.                      .XoXXOoOOXo++.         ",
"      .OOOOOoOXOoOOOOOXOX.               .++OoOooOOOXX.                      .OOOo.                      .XXOoOooOOOX+.         ",
"      .OOOOOOXOOOXXXXXOOX.               .++OOXOOXXXXX.                      .OOoo.                      .XXOOXOOXXX++.         ",
"      .oOOOOOOOOOOOOOOOXX.               .++OOOOOOOOXX.                      .OOoo.                      .XXOOOOOOOO++.         ",
"      .oOOOOOOOOOOOOOOOXX.               .++OOOOOOOOXX.                      .OOoo.                      .XXOOOOOOOO++.         ",
"      .oOOOOOOOOOOOOOOOXX.               .+++OOOOOOOXX.                      .OooX.                      .XXOOOOOOO+++.         ",
"      .ooOOOOOOOOOOOOOOXX.               .+++OOOOOOOXX.                      .OooX.                      .XXOOOOOOO+++.         ",
"       .oOOOOOOOOOOOOOXX.                 .+++OOOOOXX.                       .OooX.                       .XXOOOOO+++.          ",
"       .ooOOOOOOOOOOOXXX.                 .+++OOOOXXX.                       .OoXX.                       .XXXOOOO+++.          ",
"        .ooOOOOOOOOOXXX.                   .o+OOOXXX.                        .ooXX.                        .XXXOOO+o.           ",
"         .ooOOOOXXXXXX.                    .ooooXXXX.                        .oXXX.                        .XXXXoooo.           ",
"          ..XXXXXXXX..                      .ooXXXX.                          .XX.                          .XXXXoo.            ",
"            ........                         ......                            ..                            ......             ",
"                                                                                                                                ",
"                                                                                                                                "
};