/* XPM */
static char *_ed41dda0d0b4170d521be1ee535e2ffYi8oKWsF31JRcwsl[] = {
/* columns rows colors chars-per-pixel */
"32 32 3 1 ",
"  c None",
". c black",
"X c #F80000",
/* pixels */
"......                    ......",
"......                    ......",
"..XXXX..                ..XXXX..",
"..XXXX..                ..XXXX..",
"..XXXXXX..            ..XXXXXX..",
"..XXXXXX..            ..XXXXXX..",
"  ..XXXXXX..        ..XXXXXX..  ",
"  ..XXXXXX..        ..XXXXXX..  ",
"    ..XXXXXX........XXXXXX..    ",
"    ..XXXXXX........XXXXXX..    ",
"      ..XXXXXX....XXXXXX..      ",
"      ..XXXXXX....XXXXXX..      ",
"        ..XX..    ..XX..        ",
"        ..XX..    ..XX..        ",
"        ....        ....        ",
"        ....        ....        ",
"        ....        ....        ",
"        ....        ....        ",
"        ..XX..    ..XX..        ",
"        ..XX..    ..XX..        ",
"      ..XXXXXX....XXXXXX..      ",
"      ..XXXXXX....XXXXXX..      ",
"    ..XXXXXX........XXXXXX..    ",
"    ..XXXXXX........XXXXXX..    ",
"  ..XXXXXX..        ..XXXXXX..  ",
"  ..XXXXXX..        ..XXXXXX..  ",
"..XXXXXX..            ..XXXXXX..",
"..XXXXXX..            ..XXXXXX..",
"..XXXX..                ..XXXX..",
"..XXXX..                ..XXXX..",
"........                  ......",
"........                  ......"
};
