/* XPM */
static char *_aeb004ed6c84653ada56979168bbbe2mnymz6cBxv0kYST3[] = {
/* columns rows colors chars-per-pixel */
"192 64 6 1 ",
"  c None",
". c black",
"X c #73C050",
"o c #7DC68C",
"O c #B1F890",
"+ c #F8F8F8",
/* pixels */
"                                                                                                                                                                                                ",
"                                                                                                                                                                                                ",
"                                                                                                                                                                                                ",
"                                                                                                                                                                                                ",
"                                                                                                                                                                                                ",
"              ..                                                                                                                                                                                ",
"             .XX.                                                                                                                                                                               ",
"             .XXX.                            ..                                                                                                                             .....              ",
"            .XOOXX.                          .XX.                                                                                                                          ..+++++..            ",
"            .OOOOX.                          .XXX.                                                                                                                        .+.+++.+++.           ",
"            .OooOOX.                        .XOOXX.                                                                                                                      .++.+++.++++.          ",
"            .Oooooo..                       .OOOOX.                             ..                                                         .......                       .++++++++.+++.         ",
"          ..Ooooooo.O.                      .OOOOOX.                           .XX.                                                       .+++++++..                    .++.++++++.+++.         ",
"         .O.ooooooo.OO.                    .XOOooO...                          .XXX.                                                     .++.+++.+++.                   .+o+......++o++.        ",
"         .O.oooooo.OoO.                   ..Ooooo+O.O.                     .. .XOOX.                                                     .++.+++.++++.                  .++o+o+o+o+o+o+.        ",
"        .Ooooooooo.oooO.                 .O.+ooooo+.OO.                   .OO..OOOOX..                     ....... ..                   .+++++++++.+++.                 .Oo+o+o+o+o+o+O.        ",
"        .OooooooooooooO.                 .O+oooooo+.oO.                  .OOO.OoooOO.O.                   .+++++++.XX.                  .++.++++++.+o+.                 .Ooo+oooooooooO.        ",
"        .+o+o+o+o+oooo+.                .Oooooooooo+ooO.                .Oooo.+ooooO.O.                  .++.+++.++.XX.                 .+++......+o+o+.                 .Oo.+oooooo+O.         ",
"        .++o+o+o+o+o+o+.                .O+o+o+o+o+o+oO.                .+ooo+ooooo+.oO.                .+++.+++.+++OX.                 .+o+o+o+o+o+oo+.                 .OO.+ooooo+.O.         ",
"        .+o+++++++o+o++.                .+o+o+o+o+o+o++.                .+oo+o+o+o+o+oO.                .+++++++++.+oOO.                .O+o+o+o+o++ooO.                  .O.O+ooooO..          ",
"        .++++.+++.+++o+.                .++o+++++++o+o+.                .+o+o+o+o+o+o++.                .++.++++++.oooO.                 .O+.+oooo+.++O.                   ...OooOOX.           ",
"        .++++.+++.+++++.                 .+++.+++.++o++.                .++o.+++.++++o+.                .+++......o+..O.                 .OO.+oooo+.OO.                     .XOOOOO.            ",
"         .+++++++++.++.                  .+++.+++.+.++.                 .+++.+++.+.+++.                  .+++++++o+ooO..                  .O..+ooooO.O.                      .XOOOO.            ",
"         .++.++++++.++.                   .+.++++++.++.                  .+.++++++.+++.                  .++++++o+oooOO.                   . .OoooOO..                       .XXOOX.            ",
"          .++......++.                     .+......++.                   .++......+++.                    .++o+o+oooOOO.                      .XOOOXX.                        .XXX.             ",
"           ..+++++++.                       ..+++++..                     .++++++++..                      ..+++++++...                        ..XXXX.                         .XX.             ",
"             .......                          .....                        ........                          .......                             ....                           ..              ",
"                                                                                                                                                                                                ",
"                                                                                                                                                                                                ",
"                                                                                                                                                                                                ",
"                                                                                                                                                                                                ",
"                                                                                                                                                                                                ",
"                                                                                                                                                                                                ",
"                                                                                                                                                                                                ",
"                                                                                                                                                                                                ",
"                                                                                                                                                                                                ",
"                                                                                                                                                                                                ",
"             .......                                                                                                                                                                            ",
"           ..+++++++.                                                                                                                                                                           ",
"          .+.+++.++++.                                                                                                                                                        ..                ",
"         .++.+++.+++++.                       .....                                                                                                                          .XX.               ",
"         .++++++++.+++.                     ..+++.+..                                                                                                                        .XXX.              ",
"        .++.++++++.++++.                   .+.+++.+.+.                                                                                                                      .XOOXX.             ",
"        .+++......+++o+.                  .+.++++++.++.                      ........                                                      ....                             .OOOOX.             ",
"        .+o+++++++o+o++.                 .+++......+++.                    ..+.+++.+..                                                    .XXXX..                           .OOOOOX.            ",
"        .++o+o+o+o+o+o+.                 .++++++++++o++.                  .++.++++++.+.                                                   .XXOOOX.                         .XOOooO...           ",
"        .+o+o+o+o+oooo+.                .++o+++++++o+o+.                 .++++......++.                      .......                      ..OOoooO. .                     ..Ooooo+O.O.          ",
"        .OooooooooooooO.                .+o+o+o+o+o+o++.                 .+++++++++++++.                   ..+++++++..                   .O.Ooooo+..O.                   .O.+ooooo+.OO.         ",
"        .Ooooooooo.oooO.                .O+o+o+o+o+o+oO.                .+o+++++++++o++.                  .+++++++++++.                  .OO.+oooo+.OO.                  .O+oooooo+.oO.         ",
"         .O.oooooo.OoO.                 .Oooooooooo+ooO.                .++o+o+o+o+o+o+.                  .+++o+o+o++++.                .O++.+oooo+.+O.                 .Oooooooooo+ooO.        ",
"         .O.ooooooo.OO.                  .O+oooooo+.oO.                 .Oo+o+o+o+o+oo+.                 .O++o+o+o+o+++.                .Ooo++o+o+o+o+O.                .O+o+o+o+o+o+oO.        ",
"          ..Ooooooo.O.                   .O.+ooooo+.OO.                 .Oo.+ooooo+ooo+.                 .O+ooooooo+..++.               .+oo+o+o+o+o+o+.                .+o+o+o+o+o+o++.        ",
"            .Oooooo..                     ..Ooooo+O.O.                   .O.Ooooo+.oooO.                 .O.Oooooo+.OOo+.               .+o+o+o++++++++.                .++o+++++++o+o+.        ",
"            .XOOooO.                       .XOOooO...                    .O.OOoooO.OOO.                  .O.OOoooO..Ooo+.                .+o+++++++++++.                 .+++.+++.++o++.        ",
"             .XOOOO.                        .XOOOO.                       ..XOOOO..OO.                    ..XOOOO.++.Oo+.                .+++++++++++++.                 .+++.+++.+.++.         ",
"             .XXOOX.                        .XXOOX.                         .XOOX. ..                     ..XXOOX.+++.++.                 .+++.+++.+++.                   .+.++++++.++.         ",
"              .XXX.                          .XXX.                          .XXX.                          ..XXX.++++++.                   .++.+++.+.+.                    .+......++.          ",
"               .XX.                           .XX.                           .XX.                           ..XX.+++++.                     ..++++++..                      ..+++++..           ",
"                ..                             ..                             ..                              ........                        .......                         .....             ",
"                                                                                                                                                                                                ",
"                                                                                                                                                                                                ",
"                                                                                                                                                                                                ",
"                                                                                                                                                                                                ",
"                                                                                                                                                                                                "
};