/* XPM */
static char *_791dec1ce2142c489a8476e5fa27676koswjmIqlqZfIZQP[] = {
/* columns rows colors chars-per-pixel */
"128 64 15 1 ",
"  c None",
". c #000001",
"X c #FB6700",
"o c #777777",
"O c #F3870B",
"+ c #FFF300",
"@ c #6FC3EF",
"# c #A6CAF0",
"$ c #979797",
"% c #BBBBBB",
"& c #C0C0C0",
"* c #7373B7",
"= c #ABC7F3",
"- c #CBF3E3",
"; c #FFFBF0",
/* pixels */
"                                                                                                                                ",
"                                                                                                                                ",
"               ..                              ..                              ..                              ..               ",
"         ..............                    ..........                          ..                          ..........           ",
"        .$$$$$.$$.$$$$$.                  .ooo.$$.%%%.                        .$$.                        .ooo.$$.%%%.          ",
"         ..............                    ..........                         ....                         ..........           ",
"               ..                              ..                              ..                              ..               ",
"              .  .                            .  .                            .  .                            .  .              ",
"           ..........                      ..........                      ..........                      ..........           ",
"         ..+++++.;;;;.                   ..+++++.;;;;.                   ..+++++.;;;;.                   ..+++++.;;;;.          ",
"        .XOO+++.;;;;;;.                 .XOO+++.;;;;;;.                 .XOO+++.;;;;;;.                 .XOO+++.;;;;;;.         ",
"         .XXOO+.;;;;;;.                  .XXOO+.;;;;;;.                  .XXOO+.;;;;;;.                  .XXOO+.;;;;;;.         ",
"          .....-;..;..;.                  .....-;..;..;.                  .....-;..;..;.                  .....-;..;..;.        ",
"          .##;.-;..;..;.                  .##;.-;..;..;.                  .##;.-;..;..;.                  .##;.-;..;..;.        ",
"          .@@#.--..;..;.                  .@@#.--..;..;.                  .@@#.--..;..;.                  .@@#.--..;..;.        ",
"          .....&-;;;;;;.                  .....&-;;;;;;.                  .....&-;;;;;;.                  .....&-;;;;;;.        ",
"          .X++.&---;;;;.                  .X++.&---;;;;.                  .X++.&---;;;;.                  .X++.&---;;;;.        ",
"          .++O+.&-----.                   .++O+.&-----.                   .++O+.&-----.                   .++O+.&-----.         ",
"          .+O.+.&&-.--.                   .+O.+.&&-.--.                   .+O.+.&&-.--.                   .+O.+.&&-.--.         ",
"          .O.+++.&&&&.                    .O.+++.&&&&.                    .O.+++.&&&&.                    .O.+++.&&&&.          ",
"          ..++OOO.....                    ..++OOO.....                    ..++OOO.....                    ..++OOO.....          ",
"         .+++++OOOOXX.                   .+++++OOOOXX.                   .+++++OOOOXX.                   .+++++OOOOXX.          ",
"         .+OOOOOXXXXXX.                  .+OOOOOXXXXXX.                  .+OOOOOXXXXXX.                  .+OOOOOXXXXXX.         ",
"         ..............                  ..............                  ..............                  ..............         ",
"           .*=...*=.                       .*=...*=.                       .*=...*=.                       .*=...*=.            ",
"           .*==..*==.                      .*==..*==.                      .*==..*==.                      .*==..*==.           ",
"           ..*=. .*=.                      ..*=. .*=.                      ..*=. .*=.                      ..*=. .*=.           ",
"           ..**. .**.                      ..**. .**.                      ..**. .**.                      ..**. .**.           ",
"             ..   ..                         ..   ..                         ..   ..                         ..   ..            ",
"                                                                                                                                ",
"                                                                                                                                ",
"                                                                                                                                ",
"                                                                                                                                ",
"                                                                                                                                ",
"               ..                              ..                              ..                              ..               ",
"         ..............                    ..........                          ..                          ..........           ",
"        .$$$$$.$$.$$$$$.                  .%%%.$$.ooo.                        .$$.                        .%%%.$$.ooo.          ",
"         ..............                    ..........                         ....                         ..........           ",
"               ..                              ..                              ..                              ..               ",
"              .  .                            .  .                            .  .                            .  .              ",
"           ..........                      ..........                      ..........                      ..........           ",
"          .;;;;.+++++..                   .;;;;.+++++..                   .;;;;.+++++..                   .;;;;.+++++..         ",
"         .;;;;;;.+++OOX.                 .;;;;;;.+++OOX.                 .;;;;;;.+++OOX.                 .;;;;;;.+++OOX.        ",
"         .;;;;;;.+OOXX.                  .;;;;;;.+OOXX.                  .;;;;;;.+OOXX.                  .;;;;;;.+OOXX.         ",
"        .;..;..;-.....                  .;..;..;-.....                  .;..;..;-.....                  .;..;..;-.....          ",
"        .;..;..;-.;##.                  .;..;..;-.;##.                  .;..;..;-.;##.                  .;..;..;-.;##.          ",
"        .;..;..--.#@@.                  .;..;..--.#@@.                  .;..;..--.#@@.                  .;..;..--.#@@.          ",
"        .;;;;;;-&.....                  .;;;;;;-&.....                  .;;;;;;-&.....                  .;;;;;;-&.....          ",
"        .;;;;---&.++X.                  .;;;;---&.++X.                  .;;;;---&.++X.                  .;;;;---&.++X.          ",
"         .-----&.+O++.                   .-----&.+O++.                   .-----&.+O++.                   .-----&.+O++.          ",
"         .--.-&&.+.O+.                   .--.-&&.+.O+.                   .--.-&&.+.O+.                   .--.-&&.+.O+.          ",
"          .&&&&.+++.O.                    .&&&&.+++.O.                    .&&&&.+++.O.                    .&&&&.+++.O.          ",
"          .....OOO++..                    .....OOO++..                    .....OOO++..                    .....OOO++..          ",
"          .XXOOOO+++++.                   .XXOOOO+++++.                   .XXOOOO+++++.                   .XXOOOO+++++.         ",
"         .XXXXXXOOOOO+.                  .XXXXXXOOOOO+.                  .XXXXXXOOOOO+.                  .XXXXXXOOOOO+.         ",
"         ..............                  ..............                  ..............                  ..............         ",
"            .=*...=*.                       .=*...=*.                       .=*...=*.                       .=*...=*.           ",
"           .==*..==*.                      .==*..==*.                      .==*..==*.                      .==*..==*.           ",
"           .=*. .=*..                      .=*. .=*..                      .=*. .=*..                      .=*. .=*..           ",
"           .**. .**..                      .**. .**..                      .**. .**..                      .**. .**..           ",
"            ..   ..                         ..   ..                         ..   ..                         ..   ..             ",
"                                                                                                                                ",
"                                                                                                                                ",
"                                                                                                                                "
};