/* XPM */
static char *bd62eb5d39e744ddb6bac4933f9bcfa0TJdA6SNm8FIGafFv[] = {
/* columns rows colors chars-per-pixel */
"128 64 13 1 ",
"  c None",
". c black",
"X c #006000",
"o c #F87800",
"O c #00A800",
"+ c #00F800",
"@ c #F8C000",
"# c #A8A868",
"% c #F8D088",
"& c #E0D890",
"* c #F8F8B0",
"= c #90F8F8",
"- c #F8F8F8",
/* pixels */
"                                                                                                                                ",
"                                                                                                                                ",
"                 .....                                                                                                          ",
"                .=-.--.                          .....                           .....                           .....          ",
"               .=------.                        .=-.--.                         .=-.--.                         .=-.--.         ",
"               .=--.-.-.                       .=------.                       .=------.                       .=------.        ",
"              ..=--.-.-.                       .=--.-.-.                       .=--.-.-.                       .=--.-.-.        ",
"              .o==-.-.-..                     ..=--.-.-.                      ..=--.-.-.                      ..=--.-.-.        ",
"             .ooo=--o@@@..                    .o==-.-.-..                     .o==-.-.-..                     .o==-.-.-..       ",
"            .ooo@ooo@@--@.                   .ooo=--o@@@..                   .ooo=--o@@@..                   .ooo=--o@@@..      ",
"            .oo@@@o@@@.-.@.                 .ooo@ooo@@--@.                  .ooo@ooo@@--@.                  .ooo@ooo@@--@.      ",
"            .oo@@@o@@@@@@@.                 .oo@@@o@@@.-.@.                 .oo@@@o@@@.-.@.                 .oo@@@o@@@.-.@.     ",
"            .ooo@o.o@@@@@@.                 .oo@@@o@@@@@@@.                 .oo@@@o@@@@@@@.                 .oo@@@o@@@@@@@.     ",
"          ..O.oooo.ooo@@@o.                 .ooo@o.o@@@@@@.                 .ooo@o.o@@@@@@.                 .ooo@o.o@@@@@@.     ",
"         .+.+.ooo....oooo.                ..O.oooo.ooo@@@o.               ..O.oooo.ooo@@@o.               ..O.oooo.ooo@@@o.     ",
"        .--....oooo@@.oo..               .+.+.ooo....oooo.               .+.+.ooo....oooo.               .+.+.ooo....oooo.      ",
"       .++.+.--.ooo.....                .--....oooo@@.oo..              .--....oooo@@.oo..              .--....oooo@@.oo..      ",
"       .+.+.--..oo...                  .++.+.--.ooo.....               .++.+.--.ooo.....               .++.+.--.ooo.....        ",
"      ...++....*...**.                 .+.+.--..oo...                  .+.+.--..oo...                  .+.+.--..oo...           ",
"      .O+..o@@.******.                ...++....*...**.                ...++.-..*...**.                ...++....*...**.          ",
"      .XO.o@@@.*****...               .O+..o@@.******.                .O+..-.@@..****.                .O+..o@@.******.          ",
"      .X.o@@...***...@.               .XO.o@@@.*****..                .XOO.-.o@@@.....                .XO.o@@@.*****..          ",
"       ..o@@@@..***.@@.               .X.o@@...***...                 .XXX.-..o@@@@@.                 .X.o@@...***....          ",
"      .%.oo@@@.*....@@.                ..o@@@@..***.                   ...--.%.oo@@@.                  ..o@@@@..***.@.          ",
"      .%*.o@@@.****.oo.               .%.oo@@@.......                 .%*--.%%*.oo@@.                 .%.oo@@@.*....@.          ",
"      .........%%%....                .%*.o@@@....*..                ...**.%.%%*.ooo.                 .%*.o@@@.****.o.          ",
"      .--..%%%%.....                   ........+--.@.                .--..%%%..%%....                  ........%%%...           ",
"     .XO+-.......---.                  .---.XO++&&.@.               .XO+-..%%%%...+--.                 .---.%%%...&.            ",
"     .O+...     .O++..                 .O++..O+&X...                .O+... .....+&&&&.                 .O++.....&X.             ",
"     .#++--.   .XXO+--.               .XXO+-.#&X.                   .#++--.   .#&XXX.                 .XXO+--.#&X.              ",
"      .&&&&.   .#&&&&&.               .#&&&&&...                     .&&&&.   ......                  .#&&&&&....               ",
"       .....   ........               ........                        .....                           ........                  ",
"                                                                                                                                ",
"                                                                                                                                ",
"          .....                                                                                                                 ",
"         .--.-=.                          .....                           .....                           .....                 ",
"        .------=.                        .--.-=.                         .--.-=.                         .--.-=.                ",
"        .-.-.--=.                       .------=.                       .------=.                       .------=.               ",
"        .-.-.--=..                      .-.-.--=.                       .-.-.--=.                       .-.-.--=.               ",
"       ..-.-.-==o.                      .-.-.--=..                      .-.-.--=..                      .-.-.--=..              ",
"      ..@@@o--=ooo.                    ..-.-.-==o.                     ..-.-.-==o.                     ..-.-.-==o.              ",
"      .@--@@ooo@ooo.                  ..@@@o--=ooo.                   ..@@@o--=ooo.                   ..@@@o--=ooo.             ",
"     .@.-.@@@o@@@oo.                  .@--@@ooo@ooo.                  .@--@@ooo@ooo.                  .@--@@ooo@ooo.            ",
"     .@@@@@@@o@@@oo.                 .@.-.@@@o@@@oo.                 .@.-.@@@o@@@oo.                 .@.-.@@@o@@@oo.            ",
"     .@@@@@@o.o@ooo.                 .@@@@@@@o@@@oo.                 .@@@@@@@o@@@oo.                 .@@@@@@@o@@@oo.            ",
"     .o@@@ooo.oooo.O..               .@@@@@@o.o@ooo.                 .@@@@@@o.o@ooo.                 .@@@@@@o.o@ooo.            ",
"      .oooo....ooo.+.+.              .o@@@ooo.oooo.O..               .o@@@ooo.oooo.O..               .o@@@ooo.oooo.O..          ",
"      ..oo.@@oooo....--.              .oooo....ooo.+.+.               .oooo....ooo.+.+.               .oooo....ooo.+.+.         ",
"        .....ooo.--.+.++.             ..oo.@@oooo....--.              ..oo.@@oooo....--.              ..oo.@@oooo....--.        ",
"           ...oo..--.+.+.               .....ooo.--.+.++.               .....ooo.--.+.++.               .....ooo.--.+.++.       ",
"          .**...*....++...                 ...oo..--.+.+.                  ...oo..--.+.+.                  ...oo..--.+.+.       ",
"          .******.@@o..+O.                .**...*....++...                .**...*..-.++...                .**...*....++...      ",
"         ...*****.@@@o.OX.                .******.@@o..+O.                .****..@@.-..+O.                .******.@@o..+O.      ",
"         .@...***...@@o.X.                ..*****.@@@o.OX.                .....@@@o.-.OOX.                ..*****.@@@o.OX.      ",
"         .@@.***..@@@@o..                  ...***...@@o.X.                 .@@@@@o..-.XXX.                ....***...@@o.X.      ",
"         .@@....*.@@@oo.%.                  .***..@@@@o..                  .@@@oo.%.--...                 .@.***..@@@@o..       ",
"         .oo.****.@@@o.*%.                 .......@@@oo.%.                 .@@oo.*%%.--*%.                .@....*.@@@oo.%.      ",
"          ....%%%.........                 ..*....@@@o.*%.                 .ooo.*%%.%.**...               .o.****.@@@o.*%.      ",
"            .....%%%%..--.                 .@.--+........                  ....%%..%%%..--.                ...%%%........       ",
"           .---.......-+OX.                .@.&&++OX.---.                 .--+...%%%%..-+OX.                .&...%%%.---.       ",
"          ..++O.     ...+O.                 ...X&+O..++O.                 .&&&&+..... ...+O.                 .X&.....++O.       ",
"         .--+OXX.   .--++#.                    .X&#.-+OXX.                 .XXX&#.   .--++#.                  .X&#.--+OXX.      ",
"         .&&&&&#.   .&&&&.                      ...&&&&&#.                  ......   .&&&&.                    ....&&&&&#.      ",
"         ........   .....                         ........                           .....                        ........      "
};
