/* XPM */
static char *dd1c16484aaf4ca5ebc35b0e3e4e3af4m6bXSM3Lx9HC3tdS[] = {
/* columns rows colors chars-per-pixel */
"96 64 12 1 ",
"  c None",
". c black",
"X c #101048",
"o c #903020",
"O c #F84020",
"+ c #383880",
"@ c #5858B8",
"# c #F89000",
"$ c #F89888",
"% c #F8C0A8",
"& c #F8E0D0",
"* c #F8F8F8",
/* pixels */
"                                                                                                ",
"                                                                                                ",
"                                                                                                ",
"                                                                                                ",
"             ..  ..                                                          ..  ..             ",
"            .+@..@+.                         ..  ..                         .@+..@+.            ",
"           .X******X.                       .@+..@+.                       .@******X.           ",
"           .**.**.**.                      .*@.#O.@@.                      .**.**.**.           ",
"           .**.**.**.                      .@@.#O.@@.                      .**.**.**.           ",
"          ..*......*..                     .@@....@@.                     ..*......*..          ",
"         .X+.@@@@@@.+X.                   .@@@.#O.@@@.                   .@@.@**@@@.+X.         ",
"         .X.@@@@@@@@.X.                  .@*@@.#O.@@@+.                  .@.@@**@@@@.X.         ",
"        .X.@@@.@@.@@@.X.                 .@@@@.#O.@@+X.                 .@.@@@.@@.@@@.X.        ",
"        .*.@@@@@@@@@@.*.                .@@@@@....@@+XX.                .*.@@@@@@@@@@.*.        ",
"        .*.+@@@@@@@@+.*.                .*@@@@.#O.@@+X*.                .*.@@@@@@@@@+.*.        ",
"        .%.+++@@@@+++.%.                .*+@@@.#O.@++X*.                .*.+@@@@@@+++.%.        ",
"         ..X++++++++X..                 .*++@@....++XX%.                 ..+++++++++X..         ",
"        ..%.XX++++XX.%..                 .++..O*Oo..XX.                 ..*.++++++XX.%..        ",
"       .@@...XXXXXX...@@.                .....OOoo.....                .++...XXXXXX...@@.       ",
"      .@@@@@........@@@@@.              .@@.*......*.++.              .++.@*........@@@@@.      ",
"      .@@@@@.******.@@@@@.             .@@..***..***..++.             .++.*********.@@@@@.      ",
"      .@@@@@.******.@@@@@.            .@@.@@...@@...++.++.            .++.*********.@@@@@.      ",
"       .@@@.********.@@@.             .@@.@@@@@**@@+++.++.             .++.*********.@@@.       ",
"        ...**********...              .@@.@...****@+++.++.              ......*******...        ",
"           .%******%.                  .@@.OOO.****@+.++.                .#OOo.****%.           ",
"          ....%%%%....                  ...OOO.*****+...                 .#OOo.%%%....          ",
"          .#OO....OO#.                   .O....****%..                  .#OOOo....OO#.          ",
"          .#OOo..oOO#.                   ..***.%%%..#.                 .#OOOOo. .oOO#.          ",
"         .#OOOo..oOOO#.                  .%%%%....OOO#.                .Oooooo. .oOOO#.         ",
"        .#OOOOo..oOOOO#.                 .%%%%. .oOOOO#.               ........ .oOOOO#.        ",
"        .Oooooo..oooooO.                 ...... .oooooO.                        .oooooO.        ",
"        ................                        ........                        ........        ",
"                                                                                                ",
"                                                                                                ",
"                                                                                  ..  ..        ",
"          .. ..                                  .. ..                           .+@..+@.       ",
"         .@+.@+.                                .+@.+@.                         .X******@.      ",
"        .@****+X.                              .X+****@.                        .**.**.**.      ",
"        .*.*.**X....                        ....X**.*.*.                        .**.**.**.      ",
"        .*.*.***.##O.                      .O##.***.*.*.                       ..*......*..     ",
"      ...*******..Oo.                      .oO..*******...                    .X+.@@@**@.@@.    ",
"     .@@@.*X***X@@...                      ...@@X***X*.@@@.                   .X.@@@@**@@.@.    ",
"    .@**@@X@XXX@*@+.#.                    .#.+@*@XXX@X@@**@.                 .X.@@@.@@.@@@.@.   ",
"    ..*.@@@+@***@@+.Oo.                  .oO.+@@***@+@@@.*..            ..  ..*.@@@@@@@@@@.*.   ",
"   .@@@@@@@++****+X.oo.                  .oo.X+****++@@@@@@@.          .**..*.*.+@@@@@@@@@.*.   ",
"   .@@@@@@++X****+X...                    ...X+****X++@@@@@@.           .**.*.%.+++@@@@@@+.*.   ",
"   .+@@@+++X.%**%XX..                      ..XX%**%.X+++@@@+.         ....***...X+++++++++..    ",
"   .++++++XX..%%XX.O.                      .O.XX%%..XX++++++.         .******@.%.XX++++++.*.    ",
"    .+++XXXX.*%XX...                        ...XX%*.XXXX+++.           ....***@...XXXXXX...     ",
"     ..XXXX.*%$+X.O..                      ..O.X+$%*.XXXX..           ......*****........       ",
"       ......$$++X......                ......X++$$......           .....*...********.          ",
"             .***+@@.O*O.              .O*O.@@+***.                .**O...**.********.          ",
"             .***.@@..OOO..          ..OOO..@@.***.                .***o.@...*******.           ",
"             .**..@@.*...*...      ...*...*.@@..**.                .****o.@@@@******.           ",
"             .*..@@@..***.+@.      .@+.***..@@@..*.                 .***o.@@@******&.           ",
"              ..@.@@+....+X*.      .*X+....+@@.@..                  .***o.&&&****&&.            ",
"             ...@**@+.@....*.      .*....@.+@**@...                  .**..%&&&&&&&%.            ",
"             ...@@@+X.+.##O.        .O##.+.X+@@@...                  ......$...%%..             ",
"             ......X.&..OOO.        .OOO..&.X......                        .oO#..               ",
"             ..##O..&&.oooO.        .Oooo.&&..O##..                        .oO#.                ",
"             .*.Ooo..%%..oO.        .Oo..%%..ooO.*.                        .ooO.                ",
"              .*..oo....ooo.        .ooo....oo..*.                         .ooO#.               ",
"               .**.o.  .ooo.        .ooo.  .o.**.                           .ooO.               ",
"                .....   ...          ...   .....                             ....               "
};