/* XPM */
static char *_bee0e069c3147e3ec731c4d16ed15881bTj9u075lggjVMw[] = {
/* columns rows colors chars-per-pixel */
"128 96 10 1 ",
"  c None",
". c #000001",
"X c #101048",
"o c #383880",
"O c #5858B8",
"+ c #A8A868",
"@ c #E0D890",
"# c #F0E8C0",
"$ c #FFFBF0",
"% c #F8F8F8",
/* pixels */
"                                                                                                                                ",
"                                                                                                                                ",
"                                                                                                                                ",
"                                                                                                                                ",
"              ....                                                                                                              ",
"            ........                                                                                      ........              ",
"           ...$$$$...                          ......                      ......                        ...........            ",
"          ..OO$$$$OO..                     ............                  ...........                   ....XXXXoo....           ",
"         ..OOO$$$$OOO..                  ....O$$OOO$$...                ....$$$$......                ...XXXXoooo$$$..          ",
"        ..$$OO$$$$$OOo..                ...OOO$$OO$$$$..               ...oo$$$$$$OO...              ...+@@@ooo$$$$$...         ",
"       ..O$$O$$$$$$OOoo..             ....$OOOOO$$$$$$...             ...XoO$$$$$$O$OO..             ..+@@@##$$$$$$$$..         ",
"       ..OOOO$$OOOO$#oo..            ...$$$$$$$$$$$$$$O..            ...Xoo$$$$$$$$OO$$..           ..+@@@###$$$$$$$$$..        ",
"      ..O$OO$$$OOOOOo###..           ..$$$$$$$$$$OO$$$OO.            ..XXoo$$$$$$$$OO$$O..          ..@@@####$$$$$$$$O..        ",
"      ..OO$$$$OOOOOOo###..          ...$$$$$$$$OOOOOOOOO.            ..XXo#$$$$$$$$$OOOOO..         ..@@@###$$$$$$$$O$O..       ",
"      ..$$$$$$OOOOOOoo##..          ...$$$$$$$OOOOOO$$Oo..          ..XX@##$$$$$$$$$$$OOO..        ...@@@##oOOOO$$$$OOO..       ",
"     ...$$$$$$OOOOOOoo##...         ..oo$$$$$$OOOOOOOooo..          ..+@@###$$$OOOO$$$$$$$..       ..XX@##ooOOOOO$$$OO$..       ",
"     ..$$$$$$$OOOOOooo#@@..         ..oo$$$$$$OOOOOOo##o..          ..+@@###$OOOOOOOO$$$$$..       ..XX###ooOOOOOO$$OO$..       ",
"     ..$$$$$$$$OOOOoo##@@..         ..Xoo$$$$OOOOOOoo###..          ..+@@###oOOOOOOOO$$$$$..       ...XX##ooOOOOOO$$$OO..       ",
"     ..$$$$$$$$OOOooo##@X..         ...Xo####$OOOoooo##..           ..+@@###oOOOOOOOO$$$$$..        ..XX##oooOOOOOO$$OO..       ",
"     ..$$$$$$$$$ooo###@XX..          ..XX#####oooooo###..           ..+@@@##ooOOOOOOO$$OO..         ..XX@##ooOOOOO$$$$O..       ",
"     ...oO$$$$########XX...          ..XX@#######o###@...            ..@@@###oooOOOO$OOOO..         ...X@##oooOOO$$$$$...       ",
"      ..oooo########@@XX..           ...X@@@########@@..             ..+@@@##ooooooo#OOO..           ...@######$O$$$$$$.        ",
"      ...Xooo#####@@@XX...            ..++@@@@@@##X@X@..              ..XX@####ooo##ooo..             ....#####OOOO$$$..        ",
"       ...XXX@@@@@@@@X...              ...+@@@@@@XXXX..               ...XXX@#######oo..               ....##oooOOOO...         ",
"        ...XXX@@@@@@+...                ...++@@XXXX....                ...XXX@@@####...                   ....o........         ",
"         ....X+++++....                  .............                  ....XX@@......                     .........            ",
"          ...........                      .........                     ...........                                            ",
"             ......                                                        ......                                               ",
"                                                                                                                                ",
"                                                                                                                                ",
"                                                                                                                                ",
"                                                                                                                                ",
"                                                                                                                                ",
"                                                                                                                                ",
"                                                                                                                                ",
"                                                                                                                                ",
"             ......                           ....                              ....                                            ",
"          ...........                      ..........                        .........                   ...........            ",
"         ....X+++++....                   ......X......                    ......@X....                 ....OOOoo.....          ",
"        ...XXX@@@@@@+...                 ...XXXXX@@@+...                  ..####@@@XX...               ...$$OOOOoo##....        ",
"       ...XXX@@@@@@@@X...               ...@XXX@@@@@@+...                ..o#######@XX...              ..$$$$$OOoo###....       ",
"      ...Xooo#####@@@XX...              ..@@#####@@@@@+...              ..oo##ooo####XX...             ..$$$$$O$Oo####@...      ",
"      ..oooo########@@XX..             ...##########@@@+..             ..OO##oooooo##@@@..            ..O$$$$$OOOooo##@@...     ",
"     ...oO$$$$########XX...            ..###oooo#####@@X..            ..OOO$OOOOooo##@@@@..           ..OO$$$OOOOOooo#@XX..     ",
"     ..$$$$$$$$$ooo###@XX..           ..###ooooooo####@XX..          ..OO$$$OOOOOOoo##@@@..           ..OO$$$OOOOOOoo##@X..     ",
"     ..$$$$$$$$OOOooo##@X..           ..##oooOOOOo$###oXX..          ..$$$$OOOOOOOOo###@@+..          ..$OO$$OOOOOOoo##XX...    ",
"     ..$$$$$$$$OOOOoo##@@..          ..oo#ooOOOOOO$$$#ooX..         ..$$$$$OOOOOOOOo###@@+..          ..$OO$$OOOOOOoo###XX..    ",
"     ..$$$$$$$OOOOOooo#@@..           .oo#oOOOOOOO$$$$ooX..         ..$$$$$OOOOOOOO$###@@+..          ..OOO$$$OOOOOoo##@XX..    ",
"     ...$$$$$$OOOOOOoo##...           .oO$OOOOOOO$$$$$$oX..          ..$$$$$$OOOO$$$###@@+..          ..O$O$$$$$OOOo##@@@...    ",
"      ..$$$$$$OOOOOOoo##..            .OO$$OOOOOO$$$$$$oo..          ..OOO$$$$$$$$$$$##@X..            .OO$$$$$$$$$###@@@..     ",
"      ..OO$$$$OOOOOOo###..            .OO$$OOOOO$$$$$$$$...           .OOOOO$$$$$$$$$#oXX..            ..$$$$$$$$$####@@@..     ",
"      ..O$OO$$$OOOOOo###..            .OO$$$O$$$$$$$$$$$..            ..O$$OO$$$$$$$$ooXX..            ...$$$$$$$$###@@@+..     ",
"       ..OOOO$$OOOO$#oo..             ..$$$$$$$$$$$$$$$...              ..$O$O$$$$$$$oX...              ..$$$$$$$###@@@+..      ",
"       ..O$$O$$$$$$OOoo..             ..$$$$$$OOOO$$$$...                ..O$O$$$$$$oo...               ..$$$$$$oo#@@@+...      ",
"        ..$$OO$$$$$OOo..              ...$$$OOOOO$OO....                  ..OO$$$$$$o...                 ..$$$ooooXXX+...       ",
"         ..OOO$$$$OOO..                ...$OOO$$OOO....                    .....$$$$...                   ....ooXXXXX...        ",
"          ..OO$$$$OO..                  .............                       ..........                     ............         ",
"           ...$$$$...                     ........                              ....                        .........           ",
"            ........                                                                                                            ",
"              ....                                                                                                              ",
"                                                                                                                                ",
"                                                                                                                                ",
"                                                                                                                                ",
"                                                                                                                                ",
"                                                                                                                                ",
"                                                                                                                                ",
"                                                                                                                                ",
"                                                                                                                                ",
"               %                               %                                                                                ",
"               %%                             %%                                                                                ",
"              %%%                            %%                                                                                 ",
"       %      %%%%     %%                   %%    %                                                                             ",
"      %%%    %%%%%%  %%%%              %%      %% %   %                          %                                              ",
"       %%%  %%%%%%%%%%%%                %%%   %%%   % %%                      %                                                 ",
"       %%%%%%%%%%%%%%%%%                      %%% %%%  %                      %    %%                         %                 ",
"        %%%%%%%%%%%%%%%                   %%       %%%                              %                                           ",
"        %%%%%%%%%%%%%%                   %%%%  %%  %%                     %    %%                             %%%   %           ",
"        %%%%%%%%%%%%%%%                  %%%% %%%%   %                    %  %%%%%%                          % % %              ",
"        %%%%%%%%%%%%%%%%                 %% % %%%% %%%%                     %%%%%%%%                      % %  %%%%             ",
"         %%%%%%%%%%%%%%%%             %     %%  %  %%%% %                   %%%%%%%% %%                     % %%                ",
"     %%%%%%%%%%%%%%%%%%%%%%           %%%% %%%   % % %  %%                   %%%%%%  %                      %%% % %             ",
"      %%%%%%%%%%%%%%%%%%%%%%                %% %%%%%  % %                 %  %%%%                             %%%%              ",
"        %%%%%%%%%%%%%%%%%%               %%%   %%% %%%                   %% %%%%  %%                          % %   %           ",
"         %%%%%%%%%%%%%%%                  %   %%%% %%%%                      %%   %%                        %                   ",
"          %%%%%%%%%%%%%                    % %   %  %%                     %         %                                          ",
"          %%%%%%%%%%%%%                   %%%  %%%%                        %%  %%                                               ",
"         %%%%%%%%%%%%%%%                   %%%%%%%  %%                                                                          ",
"         %%%%% %%%% %%%%                 %%    %%   %%%                                                                         ",
"        %%%%   %%%    %%%                %%    %     %%                                                                         ",
"        %%%    %%      %%                                                                                                       ",
"                %                                                                                                               ",
"                                                                                                                                ",
"                                                                                                                                ",
"                                                                                                                                ",
"                                                                                                                                ",
"                                                                                                                                "
};