/* XPM */
static char *bdde9d05583d458ecc2cf00ca9157e1axf0UyGoYaXqyZY9L[] = {
/* columns rows colors chars-per-pixel */
"64 64 2 1 ",
"  c None",
". c white",
/* pixels */
"                                                                ",
"                                                                ",
"                                                                ",
"                                                                ",
"                                                                ",
"                                                                ",
"                                                                ",
"                                                                ",
"                                                                ",
"                                                                ",
"                                                                ",
"                                                                ",
"                .....                                           ",
"               .......                         .....            ",
"              .........                       .......           ",
"              .........                      .........          ",
"              .........                      .........          ",
"              .........                      .........          ",
"              .........                      .........          ",
"               .......                       .........          ",
"                .....                         .......           ",
"                                               .....            ",
"                                                                ",
"                                                                ",
"                                                                ",
"                                                                ",
"                                                                ",
"                                                                ",
"                                                                ",
"                                                                ",
"                                                                ",
"                         ....                                   ",
"                         ....                                   ",
"                          ..                                    ",
"                                                                ",
"              ...         ..                                    ",
"             ....        ....                                   ",
"           ......        ....            ....                   ",
"           ....          ....            ......                 ",
"           ...           ....             .......               ",
"           ...           .....              .....               ",
"           ....          ......               ...               ",
"            ....         .......             ....               ",
"            ......      .... ....            ....               ",
"             ...............  .....          ....               ",
"               ...........     .......      ....                ",
"                 ........       ................                ",
"                                  ............                  ",
"                                     ........                   ",
"                                                                ",
"                                                                ",
"                                                                ",
"                                                                ",
"                                                                ",
"                                                                ",
"                                                                ",
"                                                                ",
"                                                                ",
"                                                                ",
"                                                                ",
"                                                                ",
"                                                                ",
"                                                                ",
"                                                                "
};
