/* XPM */
static char *_e800e5b4c914a5a9275bc80f2927ce1nvWAJKcPi1DsgEWa[] = {
/* columns rows colors chars-per-pixel */
"32 32 8 1 ",
"  c None",
". c #3F3F74",
"X c #DC1F1F",
"o c #FBF236",
"O c #99E550",
"+ c #D77BBA",
"@ c #5FCDE4",
"# c white",
/* pixels */
"                                ",
"                                ",
"                                ",
"   ....                  ....   ",
"   .XX..                ..++.   ",
"   .X.+..              ..o.+.   ",
"   ..+.o.              .O.o..   ",
"    ..o..              ..O..    ",
"     ...                ...     ",
"         ....      ....         ",
"         .OO..    ..@@.         ",
"         .O.@.    .X.@.         ",
"         ..@..    ..X..         ",
"          ...      ...          ",
"              ....              ",
"              .##.              ",
"              .##.              ",
"              ....              ",
"          ...      ...          ",
"         ..o..    ..+..         ",
"         .+.o.    .+.X.         ",
"         .++..    ..XX.         ",
"         ....      ....         ",
"     ...                ...     ",
"    ..X..              ..@..    ",
"   ..@.X.              .@.O..   ",
"   .O.@..              ..O.o.   ",
"   .OO..                ..oo.   ",
"   ....                  ....   ",
"                                ",
"                                ",
"                                "
};
