/* XPM */
static char *b43116dd7c4d4d898b65cb7cc0b62692KA3wwiGEuu99fF7T[] = {
/* columns rows colors chars-per-pixel */
"96 96 6 1 ",
"  c black",
". c #1D1C17",
"X c #301602",
"o c #703A0E",
"O c #BF7625",
"+ c #E9DFB8",
/* pixels */
"                                                                                                ",
" OOOOOOOOOOOOOOOO                                                              OOOOOOOOOOOOOOOO ",
" OooooooooooooooX                                                              OooooooooooooooX ",
" OooooooooooooooXXXXXOOOOOOOOOOOOOOOOOOOOOOOOOOOOOOOOOOOOOOOOOOOOOOOOOOOOOOOOOOOooooooooooooooX ",
" OooXXXXXXXXXXXXXooooooooooooooooooooooooooooooooooooooooooooooooooooooooooooooOXXXXXXXXXXXXooX ",
" OooXooooooooooooooooooooooooooooooooooooooooooooooooooooooooooooooooooooooooooooooooooooooXooX ",
" OooXooooooooooooooooooooooooooooooooooooooooooooooooooooooooooooooooooooooooooooooooooooooXooX ",
" OooXoo..+.+.+.+.+.+.+.+.+.+.+.++++++++++++++++++++++++++++++++++.+.+.+.+.+.+.+.+.+.+.+..ooXooX ",
" OooXoo...++.+.+.+.+.+.+.+.+.++++++++++++++++++++++++++++++++++++++.+.+.+.+.+.+.+.+.++...ooOooX ",
" OooXoo+...+.+.+.+.+.+.+.+.++++++++++++++++++++++++++++++++++++++++++.+.+.+.+.+.+.+.+...+ooOooX ",
" OooXoo.+...++.+.+++.+.+.++++++++++++++++++++++++++++++++++++++++++++++.+.+.+++.+.++...+.ooOooX ",
" OooXoo+++..++.++...++.++++++++++++++++++++++++++++++++++++++++++++++++++.++...++.++..+++ooOooX ",
" OooXoo...++.++..+++.++++++++++++++++++++++++++++++++++++++++++++++++++++++.+++..++.++...ooOooX ",
" OooXoo++++++..+++.++.++++++++++++++++++++++++++++++++++++++++++++++++++++.++.+++..++++++ooOooX ",
" OooXoo.....+.+++.+.+.++++++++++++++++++++++++++++++++++++++++++++++++++++.+.+.+++.+.....ooOooX ",
" OooXoo+++++.+++++.++.++++++++++++++++++++++++++++++++++++++++++++++++++++.++.+++++.+++++ooOooX ",
" OXXXoo....+.+++++++.++++++++++++++++++++++++++++++++++++++++++++++++++++++.+++++++.+....ooOXXX ",
"   Xooo++++.++.+++++.++++++++++++++++++++++++++++++++++++++++++++++++++++++.+++++.++.++++oooX   ",
"   Xooo...+.+.+.+++..++++++++++++++++++++++++++++++++++++++++++++++++++++++..+++.+.+.+...oooX   ",
"   Xooo++++.++.+++..+.++++++++++++++++++++++++++++++++++++++++++++++++++++.+..+++.++.++++oooX   ",
"   Xooo....+.+++...++.++++++++++++++++++++++++++++++++++++++++++++++++++++.++...+++.+....oooX   ",
"   Oooo++++++...+++...++++++++++++++++++++++++++++++++++++++++++++++++++++...+++...++++++oooX   ",
"   Oooo.....++++++++++++++++++++++++++++++++++++++++++++++++++++++++++++++++++++++++.....oooX   ",
"   Oooo++++++++++++++++++++++++++++++++++++++++++++++++++++++++++++++++++++++++++++++++++oooX   ",
"   Oooo....++++++++++++++++++++++++++++++++++++++++++++++++++++++++++++++++++++++++++....oooX   ",
"   Oooo++++++++++++++++++++++++++++++++++++++++++++++++++++++++++++++++++++++++++++++++++oooX   ",
"   Oooo...++++++++++++++++++++++++++++++++++++++++++++++++++++++++++++++++++++++++++++...oooX   ",
"   Oooo++++++++++++++++++++++++++++++++++++++++++++++++++++++++++++++++++++++++++++++++++oooX   ",
"   Oooo..++++++++++++++++++++++++++++++++++++++++++++++++++++++++++++++++++++++++++++++..oooX   ",
"   Oooo++++++++++++++++++++++++++++++++++++++++++++++++++++++++++++++++++++++++++++++++++oooX   ",
"   Oooo.++++++++++++++++++++++++++++++++++++++++++++++++++++++++++++++++++++++++++++++++.oooX   ",
"   Oooo++++++++++++++++++++++++++++++++++++++++++++++++++++++++++++++++++++++++++++++++++oooX   ",
"   Oooo++++++++++++++++++++++++++++++++++++++++++++++++++++++++++++++++++++++++++++++++++oooX   ",
"   Oooo++++++++++++++++++++++++++++++++++++++++++++++++++++++++++++++++++++++++++++++++++oooX   ",
"   Oooo++++++++++++++++++++++++++++++++++++++++++++++++++++++++++++++++++++++++++++++++++oooX   ",
"   Oooo++++++++++++++++++++++++++++++++++++++++++++++++++++++++++++++++++++++++++++++++++oooX   ",
"   Oooo++++++++++++++++++++++++++++++++++++++++++++++++++++++++++++++++++++++++++++++++++oooX   ",
"   Oooo++++++++++++++++++++++++++++++++++++++++++++++++++++++++++++++++++++++++++++++++++oooX   ",
"   Oooo++++++++++++++++++++++++++++++++++++++++++++++++++++++++++++++++++++++++++++++++++oooX   ",
"   Oooo++++++++++++++++++++++++++++++++++++++++++++++++++++++++++++++++++++++++++++++++++oooX   ",
"   Oooo++++++++++++++++++++++++++++++++++++++++++++++++++++++++++++++++++++++++++++++++++oooX   ",
"   Oooo++++++++++++++++++++++++++++++++++++++++++++++++++++++++++++++++++++++++++++++++++oooX   ",
"   Oooo++++++++++++++++++++++++++++++++++++++++++++++++++++++++++++++++++++++++++++++++++oooX   ",
"   Oooo++++++++++++++++++++++++++++++++++++++++++++++++++++++++++++++++++++++++++++++++++oooX   ",
"   Oooo++++++++++++++++++++++++++++++++++++++++++++++++++++++++++++++++++++++++++++++++++oooX   ",
"   Oooo++++++++++++++++++++++++++++++++++++++++++++++++++++++++++++++++++++++++++++++++++oooX   ",
"   Oooo++++++++++++++++++++++++++++++++++++++++++++++++++++++++++++++++++++++++++++++++++oooX   ",
"   Oooo++++++++++++++++++++++++++++++++++++++++++++++++++++++++++++++++++++++++++++++++++oooX   ",
"   Oooo++++++++++++++++++++++++++++++++++++++++++++++++++++++++++++++++++++++++++++++++++oooX   ",
"   Oooo++++++++++++++++++++++++++++++++++++++++++++++++++++++++++++++++++++++++++++++++++oooX   ",
"   Oooo++++++++++++++++++++++++++++++++++++++++++++++++++++++++++++++++++++++++++++++++++oooX   ",
"   Oooo++++++++++++++++++++++++++++++++++++++++++++++++++++++++++++++++++++++++++++++++++oooX   ",
"   Oooo++++++++++++++++++++++++++++++++++++++++++++++++++++++++++++++++++++++++++++++++++oooX   ",
"   Oooo++++++++++++++++++++++++++++++++++++++++++++++++++++++++++++++++++++++++++++++++++oooX   ",
"   Oooo++++++++++++++++++++++++++++++++++++++++++++++++++++++++++++++++++++++++++++++++++oooX   ",
"   Oooo++++++++++++++++++++++++++++++++++++++++++++++++++++++++++++++++++++++++++++++++++oooX   ",
"   Oooo++++++++++++++++++++++++++++++++++++++++++++++++++++++++++++++++++++++++++++++++++oooX   ",
"   Oooo++++++++++++++++++++++++++++++++++++++++++++++++++++++++++++++++++++++++++++++++++oooX   ",
"   Oooo++++++++++++++++++++++++++++++++++++++++++++++++++++++++++++++++++++++++++++++++++oooX   ",
"   Oooo++++++++++++++++++++++++++++++++++++++++++++++++++++++++++++++++++++++++++++++++++oooX   ",
"   Oooo++++++++++++++++++++++++++++++++++++++++++++++++++++++++++++++++++++++++++++++++++oooX   ",
"   Oooo++++++++++++++++++++++++++++++++++++++++++++++++++++++++++++++++++++++++++++++++++oooX   ",
"   Oooo++++++++++++++++++++++++++++++++++++++++++++++++++++++++++++++++++++++++++++++++++oooX   ",
"   Oooo++++++++++++++++++++++++++++++++++++++++++++++++++++++++++++++++++++++++++++++++++oooX   ",
"   Oooo++++++++++++++++++++++++++++++++++++++++++++++++++++++++++++++++++++++++++++++++++oooX   ",
"   Oooo.++++++++++++++++++++++++++++++++++++++++++++++++++++++++++++++++++++++++++++++++.oooX   ",
"   Oooo++++++++++++++++++++++++++++++++++++++++++++++++++++++++++++++++++++++++++++++++++oooX   ",
"   Oooo..++++++++++++++++++++++++++++++++++++++++++++++++++++++++++++++++++++++++++++++..oooX   ",
"   Oooo++++++++++++++++++++++++++++++++++++++++++++++++++++++++++++++++++++++++++++++++++oooX   ",
"   Oooo...++++++++++++++++++++++++++++++++++++++++++++++++++++++++++++++++++++++++++++...oooX   ",
"   Oooo++++++++++++++++++++++++++++++++++++++++++++++++++++++++++++++++++++++++++++++++++oooX   ",
"   Oooo....++++++++++++++++++++++++++++++++++++++++++++++++++++++++++++++++++++++++++....oooX   ",
"   Oooo++++++++++++++++++++++++++++++++++++++++++++++++++++++++++++++++++++++++++++++++++oooX   ",
"   Oooo.....++++++++++++++++++++++++++++++++++++++++++++++++++++++++++++++++++++++++.....oooX   ",
"   Oooo++++++...+++...++++++++++++++++++++++++++++++++++++++++++++++++++++...+++...++++++oooX   ",
"   Oooo....+.+++...++.++++++++++++++++++++++++++++++++++++++++++++++++++++.++...+++.+....oooX   ",
"   Oooo++++.++.+++..+.++++++++++++++++++++++++++++++++++++++++++++++++++++.+..+++.++.++++oooX   ",
"   Oooo...+.+.+.+++..++++++++++++++++++++++++++++++++++++++++++++++++++++++..+++.+.+.+...oooX   ",
"   Oooo++++.++.+++++.++++++++++++++++++++++++++++++++++++++++++++++++++++++.+++++.++.++++oooX   ",
" OOOOoo....+.+++++++.++++++++++++++++++++++++++++++++++++++++++++++++++++++.+++++++.+....ooOOOO ",
" OooXoo+++++.+++++.++.++++++++++++++++++++++++++++++++++++++++++++++++++++.++.+++++.+++++ooOooX ",
" OooXoo.....+.+++.+.+.++++++++++++++++++++++++++++++++++++++++++++++++++++.+.+.+++.+.....ooOooX ",
" OooXoo++++++..+++.++.++++++++++++++++++++++++++++++++++++++++++++++++++++.++.+++..++++++ooOooX ",
" OooXoo...++.++..+++.++++++++++++++++++++++++++++++++++++++++++++++++++++++.+++..++.++...ooOooX ",
" OooXoo+++..++.++...++.++++++++++++++++++++++++++++++++++++++++++++++++++.++...++.++..+++ooOooX ",
" OooXoo.+...++.+.+++.+.+.++++++++++++++++++++++++++++++++++++++++++++++.+.+.+++.+.++...+.ooOooX ",
" OooXoo+...+.+.+.+.+.+.+.+.++++++++++++++++++++++++++++++++++++++++++.+.+.+.+.+.+.+.+...+ooOooX ",
" OooXoo...++.+.+.+.+.+.+.+.+.++++++++++++++++++++++++++++++++++++++.+.+.+.+.+.+.+.+.++...ooOooX ",
" OooXoo..+.+.+.+.+.+.+.+.+.+.+.++++++++++++++++++++++++++++++++++.+.+.+.+.+.+.+.+.+.+.+..ooOooX ",
" OooXooooooooooooooooooooooooooooooooooooooooooooooooooooooooooooooooooooooooooooooooooooooOooX ",
" OooXooooooooooooooooooooooooooooooooooooooooooooooooooooooooooooooooooooooooooooooooooooooOooX ",
" OooXXXXOOOOOOOOOooooooooooooooooooooooooooooooooooooooooooooooooooooooooooooooOOOOOOOOOOOOOooX ",
" OooooooooooooooXXXXXXXXXXXXXXXXXXXXXXXXXXXXXXXXXXXXXXXXXXXXXXXXXXXXXXXXXXXXXXXOooooooooooooooX ",
" OooooooooooooooX                                                              OooooooooooooooX ",
" OXXXXXXXXXXXXXXX                                                              OXXXXXXXXXXXXXXX ",
"                                                                                                "
};
