/* XPM */
static char *_a8160beb1fe42bab46c231f2dc833e1Whz3nlWPZXG9VEzv[] = {
/* columns rows colors chars-per-pixel */
"192 64 9 1 ",
"  c None",
"$ c white",
". c #FF0404",
"X c #FF0071",
"o c #FF48C6",
"O c #75AAFF",
"+ c #00C5FF",
"@ c #04D7FF",
"# c #C982FF",
/* pixels */
"                                                                                                                                                                                                ",
"                                                                                                                                                                                                ",
"              $$$$                                                                                                                                                                              ",
"              $@@$                                                                                                                                                                              ",
"              $@@$                                                                                                                                                                              ",
"              $@@$                                                                                                                                                                              ",
"              $@@$                                                                                                                                                                              ",
"              $@@$                                                                                                                                                            $$$$              ",
"              $@@$                                                                                                                                                           $$XX$$             ",
"              $@@$                                                                                                                             $$                           $$XXXX$$            ",
"              $@@$                             $$                                                                                             $oo$                        $$XXXXXXXX$$          ",
"              $@@$                            $++$                                                                                          $$oooo$$                     $$XXXXXXXXXX$$         ",
"              $@@$                            $++$                                                                                         $oooooooo$                  $$XXX$$$XX$$$XXX$$       ",
"              $@@$                            $++$                                                                                        $oooooooooo$                $$XXX$$ $XX$ $$XXX$$      ",
"              $@@$                            $++$                                                                                       $ooo$$oo$$ooo$              $$XXX$$  $XX$  $$XXX$$     ",
"              $@@$                            $++$                                                                                      $ooo$ $oo$ $ooo$             $XX$$    $XX$    $$XX$     ",
"    $$$$      $@@$      $$$$                  $++$                                                                                     $ooo$  $oo$  $ooo$            $$$$     $XX$     $$$$     ",
"    $@@$$     $@@$     $$@@$                  $++$                                                            $$$$                    $ooo$   $oo$   $ooo$                    $XX$              ",
"    $@@@$$    $@@$    $$@@@$                  $++$                             $$                          $$$####$$$                  $$$    $oo$    $$$                     $XX$              ",
"    $$@@@$$   $@@$   $$@@@$$         $$$$     $++$     $$$$                   $OO$                       $$##########$$                       $oo$                            $XX$              ",
"     $$@@@$$  $@@$  $$@@@$$          $++$$    $++$    $$++$                   $OO$                     $$##$$$$##$$$$##$$                     $oo$                            $XX$              ",
"      $$@@@$$ $@@$ $$@@@$$           $$+++$$  $++$  $$+++$$            $$$    $OO$    $$$             $##$$$  $##$  $$$##$                    $oo$                            $XX$              ",
"       $$@@@$$$@@$$$@@@$$             $$+++$$ $++$ $$+++$$            $OO$$$  $OO$  $$$OO$             $$$    $##$    $$$                     $oo$                            $XX$              ",
"        $$@@@@@@@@@@@@$$               $$+++$$$++$$$+++$$              $$OO$$$$OO$$$$OO$$                     $##$                            $oo$                            $XX$              ",
"         $$@@@@@@@@@@$$                  $$++++++++++$$                  $$OOOOOOOOOO$$                       $##$                            $oo$                            $XX$              ",
"          $$@@@@@@@@$$                    $$++++++++$$                     $$$OOOO$$$                          $$                              $$                              $$               ",
"           $$@@@@@@$$                       $$++++$$                          $$$$                                                                                                              ",
"            $$@@@@$$                         $$++$$                                                                                                                                             ",
"             $$@@$$                           $$$$                                                                                                                                              ",
"              $$$$                                                                                                                                                                              ",
"                                                                                                                                                                                                ",
"                                                                                                                                                                                                ",
"                                                                                                                                                                                                ",
"                                                                                                                                                                                                ",
"              $$$$                                                                                                                                                                              ",
"             $$..$$                           $$$$                                                                                                                                              ",
"            $$....$$                         $$XX$$                                                                                                                                             ",
"           $$......$$                       $$XXXX$$                          $$$$                                                                                                              ",
"          $$........$$                    $$XXXXXXXX$$                     $$$oooo$$$                          $$                              $$                              $$               ",
"         $$..........$$                  $$XXXXXXXXXX$$                  $$oooooooooo$$                       $##$                            $OO$                            $++$              ",
"        $$............$$               $$XXX$$$XX$$$XXX$$              $$oo$$$$oo$$$$oo$$                     $##$                            $OO$                            $++$              ",
"       $$...$$$..$$$...$$             $$XXX$$ $XX$ $$XXX$$            $oo$$$  $oo$  $$$oo$             $$$    $##$    $$$                     $OO$                            $++$              ",
"      $$...$$ $..$ $$...$$           $$XXX$$  $XX$  $$XXX$$            $$$    $oo$    $$$             $##$$$  $##$  $$$##$                    $OO$                            $++$              ",
"     $$...$$  $..$  $$...$$          $XX$$    $XX$    $$XX$                   $oo$                     $$##$$$$##$$$$##$$                     $OO$                            $++$              ",
"    $$...$$   $..$   $$...$$         $$$$     $XX$     $$$$                   $oo$                       $$##########$$                       $OO$                            $++$              ",
"    $...$$    $..$    $$...$                  $XX$                             $$                          $$$####$$$                  $$$    $OO$    $$$                     $++$              ",
"    $..$$     $..$     $$..$                  $XX$                                                            $$$$                    $OOO$   $OO$   $OOO$                    $++$              ",
"    $$$$      $..$      $$$$                  $XX$                                                                                     $OOO$  $OO$  $OOO$            $$$$     $++$     $$$$     ",
"              $..$                            $XX$                                                                                      $OOO$ $OO$ $OOO$             $++$$    $++$    $$++$     ",
"              $..$                            $XX$                                                                                       $OOO$$OO$$OOO$              $$+++$$  $++$  $$+++$$     ",
"              $..$                            $XX$                                                                                        $OOOOOOOOOO$                $$+++$$ $++$ $$+++$$      ",
"              $..$                            $XX$                                                                                         $OOOOOOOO$                  $$+++$$$++$$$+++$$       ",
"              $..$                            $XX$                                                                                          $$OOOO$$                     $$++++++++++$$         ",
"              $..$                             $$                                                                                             $OO$                        $$++++++++$$          ",
"              $..$                                                                                                                             $$                           $$++++$$            ",
"              $..$                                                                                                                                                           $$++$$             ",
"              $..$                                                                                                                                                            $$$$              ",
"              $..$                                                                                                                                                                              ",
"              $..$                                                                                                                                                                              ",
"              $..$                                                                                                                                                                              ",
"              $..$                                                                                                                                                                              ",
"              $$$$                                                                                                                                                                              ",
"                                                                                                                                                                                                ",
"                                                                                                                                                                                                "
};
