/* XPM */
static char *_fd8a4b76d8b4aded5da565f5b2bfbfcCjAi1ITzZnnyBXUo[] = {
/* columns rows colors chars-per-pixel */
"128 64 5 1 ",
"  c None",
". c black",
"X c #663931",
"o c #9BADB7",
"O c #CBDBFC",
/* pixels */
"                                                                                                                                ",
"                                                                                                                                ",
"                                                                                                                                ",
"             .                                                                 ....                                             ",
"             ..                                                                .XX.                                             ",
"             .O.                                                               .XX.                                             ",
"             .oO.                                                              .XX.                                             ",
"             .oO.                                                              .XX.                                             ",
"             .ooO.                                                             .XX.                                             ",
"             .ooO.                                                             .XX.                                             ",
"             .ooO.                                                             .XX.                                             ",
"             .oooO.                                                          ......                                             ",
"             .oooO.                                                          .Oooo.                                             ",
"             .oooO.                ..........................                .Oooo.                        ..........           ",
"             .oooO.                .XXXXXXX.ooooooooooooooO.                 .Oooo.                     ...OOOOOOOOO.           ",
"             .oooO.                .XXXXXXX.ooooooooooooOO.                  .Oooo.                   ..OOOooooooooo.........   ",
"             .oooO.                .........oooooooooOOO..                   .Oooo.                  .OOoooooooooooo.XXXXXXX.   ",
"             .oooO.                        .OOOOOOOOO...                     .Oooo.                 .Ooooooooooooooo.XXXXXXX.   ",
"             .oooO.                        ..........                        .Oooo.                ..........................   ",
"             .oooO.                                                          .Oooo.                                             ",
"             ......                                                          .Oooo.                                             ",
"             .XX.                                                             .Ooo.                                             ",
"             .XX.                                                             .Ooo.                                             ",
"             .XX.                                                             .Ooo.                                             ",
"             .XX.                                                              .Oo.                                             ",
"             .XX.                                                              .Oo.                                             ",
"             .XX.                                                               .O.                                             ",
"             .XX.                                                                ..                                             ",
"             ....                                                                 .                                             ",
"                                                                                                                                ",
"                                                                                                                                ",
"                                                                                                                                ",
"                                                                                                                                ",
"                                                                                                                                ",
"                                                                                                                                ",
"                  .                                                         ....                                                ",
"                 ..                                                         .XX.                                                ",
"                .O.                                                         .XX.                                                ",
"               .Oo.                                                         .XX.                                                ",
"               .Oo.                                                         .XX.                                                ",
"              .Ooo.                                                         .XX.                                                ",
"              .Ooo.                                                         .XX.                                                ",
"              .Ooo.                                                         .XX.                                                ",
"             .Oooo.                                                         ......                                              ",
"             .Oooo.                                                         .oooO.                                              ",
"             .Oooo.                ..........................               .oooO.                          ..........          ",
"             .Oooo.                 .Ooooooooooooooo.XXXXXXX.               .oooO.                          .OOOOOOOOO...       ",
"             .Oooo.                  .OOoooooooooooo.XXXXXXX.               .oooO.                  .........oooooooooOOO..     ",
"             .Oooo.                   ..OOOooooooooo.........               .oooO.                  .XXXXXXX.ooooooooooooOO.    ",
"             .Oooo.                     ...OOOOOOOOO.                       .oooO.                  .XXXXXXX.ooooooooooooooO.   ",
"             .Oooo.                        ..........                       .oooO.                  ..........................  ",
"             .Oooo.                                                         .oooO.                                              ",
"             ......                                                         .oooO.                                              ",
"               .XX.                                                         .ooO.                                               ",
"               .XX.                                                         .ooO.                                               ",
"               .XX.                                                         .ooO.                                               ",
"               .XX.                                                         .oO.                                                ",
"               .XX.                                                         .oO.                                                ",
"               .XX.                                                         .O.                                                 ",
"               .XX.                                                         ..                                                  ",
"               ....                                                         .                                                   ",
"                                                                                                                                ",
"                                                                                                                                ",
"                                                                                                                                "
};
