/* XPM */
static char *_e86949c02074248f3b8669068161440l2p0MqjnqxcKajRB[] = {
/* columns rows colors chars-per-pixel */
"128 96 4 1 ",
"  c None",
". c #45283C",
"X c #F8F8F8",
"o c white",
/* pixels */
"                                                                                                                                ",
"                                                                                                                                ",
"                                                                                                                                ",
"            oooooo                                                                                                              ",
"          oo......oo                                                                                                            ",
"         o..........o                            oooooo                                                                         ",
"         o...........o                          o......o                                                                        ",
"        o............o                         o........o                                               oo                      ",
"        o............o                         o........o                                              o..o                     ",
"        o............o                         o.........o                            oooo             o...o                    ",
"         o...........o                         o.........o                           o....o            o....o                   ",
"          o.........o                          o.........o                          o......o            o...oo                  ",
"           ooo..oooo                            o........o                          o......o             o....o                 ",
"             o..o                              o...oooooo                     oooooo.......o              o....o                ",
"             o..o                              o...o                    oooooo.............o               o....o               ",
"             o..o                             o...o                    o...................o                o....o              ",
"             o..o                             o..o                     o........oooo.......o                 o....o             ",
"             o..o                            o...o                      oooooooo   o.......o                  o....o            ",
"             o..o                           o...o                                  o.......o                   o....o           ",
"             o..o                           o...o                                   ooooooo                     o....o          ",
"             o..o                          o...o                                                                 o...oooo       ",
"             o..o                          o...o                                                                  o......oo     ",
"             o..o                         o...o                                                                   o........o    ",
"             o..o                        o...o                                                                   o.........o    ",
"             o..o                        o...o                                                                   o.........o    ",
"             o..o                        o..o                                                                    o.........o    ",
"              oo                          oo                                                                     o.........o    ",
"                                                                                                                  o.......o     ",
"                                                                                                                   ooooooo      ",
"                                                                                                                                ",
"                                                                                                                                ",
"                                                                                                                                ",
"                                                                                                                                ",
"                                                                                                                                ",
"                                                                                                                                ",
"                                                                                                      oooooo                    ",
"                                                                                                     o......o                   ",
"               oo                                    oo                                             o.......o                   ",
"              o..o                                  o..o                                            o.......o                   ",
"              o..o                                 o...o                                            o.......o                   ",
"              o..o                                o....o                                            o.......o                   ",
"              o..o                               o....o                                             o.......o                   ",
"              o..o                              o....o                                              o.......o                   ",
"              o..o                             o....o                                                ooooo...oo                 ",
"              o..o                            o...oo                  ooooo                               o....o                ",
"              o..o                           o...o                   o.....oo                              o....oo              ",
"              o..o                          o....o                  o........ooooooooooo                    o.....o             ",
"              o..o                         o....o                   o...................o                    oo....o            ",
"              o..o                         o...o                    o...................o                      o....o           ",
"              o..o                        o...o                     o........ooooooooooo                        o....oo         ",
"              o..o                        o..o                       o.......o                                   oo....o        ",
"              o..o                  oooo o...o                        ooooooo                                      o...o        ",
"             oo...o                o....o...o                                                                      o....o       ",
"            o......o               o........o                                                                       o...o       ",
"           o........o              o.........o                                                                       o..o       ",
"           o........o              o.........o                                                                        oo        ",
"           o........o              o.........o                                                                                  ",
"            o......o                o........o                                                                                  ",
"             oooooo                  oo......o                                                                                  ",
"                                       oooooo                                                                                   ",
"                                                                                                                                ",
"                                                                                                                                ",
"                                                                                                                                ",
"                                                                                                                                ",
"                                                                                                                                ",
"                                                                                                                                ",
"                                                                                                                                ",
"                                                                                                                                ",
"               X                               X                                                                                ",
"               XX                             XX                                                                                ",
"              XXX                            XX                                                                                 ",
"       X      XXXX     XX                   XX    X                                                                             ",
"      XXX    XXXXXX  XXXX              XX      XX X   X                          X                                              ",
"       XXX  XXXXXXXXXXXX                XXX   XXX   X XX                      X                                                 ",
"       XXXXXXXXXXXXXXXXX                      XXX XXX  X                      X    XX                         X                 ",
"        XXXXXXXXXXXXXXX                   XX       XXX                              X                                           ",
"        XXXXXXXXXXXXXX                   XXXX  XX  XX                     X    XX                             XXX   X           ",
"        XXXXXXXXXXXXXXX                  XXXX XXXX   X                    X  XXXXXX                          X X X              ",
"        XXXXXXXXXXXXXXXX                 XX X XXXX XXXX                     XXXXXXXX                      X X  XXXX             ",
"         XXXXXXXXXXXXXXXX             X     XX  X  XXXX X                   XXXXXXXX XX                     X XX                ",
"     XXXXXXXXXXXXXXXXXXXXXX           XXXX XXX   X X X  XX                   XXXXXX  X                      XXX X X             ",
"      XXXXXXXXXXXXXXXXXXXXXX                XX XXXXX  X X                 X  XXXX                             XXXX              ",
"        XXXXXXXXXXXXXXXXXX               XXX   XXX XXX                   XX XXXX  XX                          X X   X           ",
"         XXXXXXXXXXXXXXX                  X   XXXX XXXX                      XX   XX                        X                   ",
"          XXXXXXXXXXXXX                    X X   X  XX                     X         X                                          ",
"          XXXXXXXXXXXXX                   XXX  XXXX                        XX  XX                                               ",
"         XXXXXXXXXXXXXXX                   XXXXXXX  XX                                                                          ",
"         XXXXX XXXX XXXX                 XX    XX   XXX                                                                         ",
"        XXXX   XXX    XXX                XX    X     XX                                                                         ",
"        XXX    XX      XX                                                                                                       ",
"                X                                                                                                               ",
"                                                                                                                                ",
"                                                                                                                                ",
"                                                                                                                                ",
"                                                                                                                                ",
"                                                                                                                                "
};
